<svg width="28" height="19" viewBox="0 0 28 19" fill="none" xmlns="http://www.w3.org/2000/svg">
<path d="M2.19519 14.3506C3.73119 13.0706 4.95519 12.0066 5.86719 11.1586C6.77919 10.2946 7.53919 9.39858 8.14719 8.47058C8.75519 7.54258 9.05919 6.63058 9.05919 5.73458C9.05919 4.91858 8.86719 4.27858 8.48319 3.81458C8.09919 3.35058 7.50719 3.11858 6.70719 3.11858C5.90719 3.11858 5.29119 3.39058 4.85919 3.93458C4.42719 4.46258 4.20319 5.19058 4.18719 6.11858H0.923188C0.987188 4.19858 1.55519 2.74258 2.62719 1.75058C3.71519 0.758577 5.09119 0.262577 6.75519 0.262577C8.57919 0.262577 9.97919 0.750577 10.9552 1.72658C11.9312 2.68658 12.4192 3.95858 12.4192 5.54258C12.4192 6.79058 12.0832 7.98258 11.4112 9.11858C10.7392 10.2546 9.97119 11.2466 9.10719 12.0946C8.24319 12.9266 7.11519 13.9346 5.72319 15.1186H12.8032V17.9026H0.947188V15.4066L2.19519 14.3506ZM23.9924 5.01458C23.8324 4.34258 23.5524 3.83858 23.1524 3.50258C22.7684 3.16658 22.2084 2.99858 21.4724 2.99858C20.3684 2.99858 19.5524 3.44658 19.0244 4.34258C18.5124 5.22258 18.2484 6.66258 18.2324 8.66258C18.6164 8.02258 19.1764 7.52658 19.9124 7.17458C20.6484 6.80658 21.4484 6.62258 22.3124 6.62258C23.3524 6.62258 24.2724 6.84658 25.0724 7.29458C25.8724 7.74258 26.4964 8.39858 26.9444 9.26258C27.3924 10.1106 27.6164 11.1346 27.6164 12.3346C27.6164 13.4706 27.3844 14.4866 26.9204 15.3826C26.4724 16.2626 25.8084 16.9506 24.9284 17.4466C24.0484 17.9426 23.0004 18.1906 21.7844 18.1906C20.1204 18.1906 18.8084 17.8226 17.8484 17.0866C16.9044 16.3506 16.2404 15.3266 15.8564 14.0146C15.4884 12.6866 15.3044 11.0546 15.3044 9.11858C15.3044 6.19058 15.8084 3.98258 16.8164 2.49458C17.8244 0.990577 19.4164 0.238577 21.5924 0.238577C23.2724 0.238577 24.5764 0.694577 25.5044 1.60658C26.4324 2.51858 26.9684 3.65458 27.1124 5.01458H23.9924ZM21.5444 9.38258C20.6964 9.38258 19.9844 9.63058 19.4084 10.1266C18.8324 10.6226 18.5444 11.3426 18.5444 12.2866C18.5444 13.2306 18.8084 13.9746 19.3364 14.5186C19.8804 15.0626 20.6404 15.3346 21.6164 15.3346C22.4804 15.3346 23.1604 15.0706 23.6564 14.5426C24.1684 14.0146 24.4244 13.3026 24.4244 12.4066C24.4244 11.4786 24.1764 10.7426 23.6804 10.1986C23.2004 9.65458 22.4884 9.38258 21.5444 9.38258Z" fill="#354563"/>
</svg>
