<svg width="151" height="36" viewBox="0 0 151 36" fill="none" xmlns="http://www.w3.org/2000/svg">
<g filter="url(#filter0_d_334_244)">
<rect x="4" width="142.859" height="28" rx="14" fill="#B8E1D1"/>
<path d="M19.34 19.098C18.6587 19.098 18.0427 18.9813 17.492 18.748C16.9507 18.5147 16.5213 18.1787 16.204 17.74C15.8867 17.3013 15.7233 16.7833 15.714 16.186H17.814C17.842 16.5873 17.982 16.9047 18.234 17.138C18.4953 17.3713 18.85 17.488 19.298 17.488C19.7553 17.488 20.1147 17.3807 20.376 17.166C20.6373 16.942 20.768 16.6527 20.768 16.298C20.768 16.0087 20.6793 15.7707 20.502 15.584C20.3247 15.3973 20.1007 15.2527 19.83 15.15C19.5687 15.038 19.2047 14.9167 18.738 14.786C18.1033 14.5993 17.5853 14.4173 17.184 14.24C16.792 14.0533 16.4513 13.778 16.162 13.414C15.882 13.0407 15.742 12.546 15.742 11.93C15.742 11.3513 15.8867 10.8473 16.176 10.418C16.4653 9.98867 16.8713 9.662 17.394 9.438C17.9167 9.20467 18.514 9.088 19.186 9.088C20.194 9.088 21.0107 9.33533 21.636 9.83C22.2707 10.3153 22.6207 10.9967 22.686 11.874H20.53C20.5113 11.538 20.3667 11.2627 20.096 11.048C19.8347 10.824 19.4847 10.712 19.046 10.712C18.6633 10.712 18.3553 10.81 18.122 11.006C17.898 11.202 17.786 11.4867 17.786 11.86C17.786 12.1213 17.87 12.3407 18.038 12.518C18.2153 12.686 18.43 12.826 18.682 12.938C18.9433 13.0407 19.3073 13.162 19.774 13.302C20.4087 13.4887 20.9267 13.6753 21.328 13.862C21.7293 14.0487 22.0747 14.3287 22.364 14.702C22.6533 15.0753 22.798 15.5653 22.798 16.172C22.798 16.6947 22.6627 17.18 22.392 17.628C22.1213 18.076 21.7247 18.4353 21.202 18.706C20.6793 18.9673 20.0587 19.098 19.34 19.098ZM26.7793 12.854V16.606C26.7793 16.8673 26.8399 17.0587 26.9613 17.18C27.0919 17.292 27.3066 17.348 27.6053 17.348H28.5153V19H27.2833C25.6313 19 24.8053 18.1973 24.8053 16.592V12.854H23.8813V11.244H24.8053V9.326H26.7793V11.244H28.5153V12.854H26.7793ZM37.247 11.244V19H35.273V18.02C35.021 18.356 34.6897 18.622 34.279 18.818C33.8777 19.0047 33.439 19.098 32.963 19.098C32.3563 19.098 31.8197 18.972 31.353 18.72C30.8863 18.4587 30.5177 18.0807 30.247 17.586C29.9857 17.082 29.855 16.4847 29.855 15.794V11.244H31.815V15.514C31.815 16.13 31.969 16.606 32.277 16.942C32.585 17.2687 33.005 17.432 33.537 17.432C34.0783 17.432 34.503 17.2687 34.811 16.942C35.119 16.606 35.273 16.13 35.273 15.514V11.244H37.247ZM38.6768 15.094C38.6768 14.31 38.8308 13.6147 39.1388 13.008C39.4562 12.4013 39.8855 11.9347 40.4268 11.608C40.9682 11.2813 41.5702 11.118 42.2328 11.118C42.7368 11.118 43.2175 11.23 43.6748 11.454C44.1322 11.6687 44.4962 11.958 44.7668 12.322V8.64H46.7548V19H44.7668V17.852C44.5242 18.2347 44.1835 18.5427 43.7448 18.776C43.3062 19.0093 42.7975 19.126 42.2188 19.126C41.5655 19.126 40.9682 18.958 40.4268 18.622C39.8855 18.286 39.4562 17.8147 39.1388 17.208C38.8308 16.592 38.6768 15.8873 38.6768 15.094ZM44.7808 15.122C44.7808 14.646 44.6875 14.24 44.5008 13.904C44.3142 13.5587 44.0622 13.2973 43.7448 13.12C43.4275 12.9333 43.0868 12.84 42.7228 12.84C42.3588 12.84 42.0228 12.9287 41.7148 13.106C41.4068 13.2833 41.1548 13.5447 40.9588 13.89C40.7722 14.226 40.6788 14.6273 40.6788 15.094C40.6788 15.5607 40.7722 15.9713 40.9588 16.326C41.1548 16.6713 41.4068 16.9373 41.7148 17.124C42.0322 17.3107 42.3682 17.404 42.7228 17.404C43.0868 17.404 43.4275 17.3153 43.7448 17.138C44.0622 16.9513 44.3142 16.69 44.5008 16.354C44.6875 16.0087 44.7808 15.598 44.7808 15.122ZM49.6631 10.32C49.3178 10.32 49.0285 10.2127 48.7951 9.998C48.5711 9.774 48.4591 9.49867 48.4591 9.172C48.4591 8.84533 48.5711 8.57467 48.7951 8.36C49.0285 8.136 49.3178 8.024 49.6631 8.024C50.0085 8.024 50.2931 8.136 50.5171 8.36C50.7505 8.57467 50.8671 8.84533 50.8671 9.172C50.8671 9.49867 50.7505 9.774 50.5171 9.998C50.2931 10.2127 50.0085 10.32 49.6631 10.32ZM50.6291 11.244V19H48.6691V11.244H50.6291ZM56.0096 19.126C55.2629 19.126 54.5909 18.9627 53.9936 18.636C53.3963 18.3 52.9249 17.8287 52.5796 17.222C52.2436 16.6153 52.0756 15.9153 52.0756 15.122C52.0756 14.3287 52.2483 13.6287 52.5936 13.022C52.9483 12.4153 53.4289 11.9487 54.0356 11.622C54.6423 11.286 55.3189 11.118 56.0656 11.118C56.8123 11.118 57.4889 11.286 58.0956 11.622C58.7023 11.9487 59.1783 12.4153 59.5236 13.022C59.8783 13.6287 60.0556 14.3287 60.0556 15.122C60.0556 15.9153 59.8736 16.6153 59.5096 17.222C59.1549 17.8287 58.6696 18.3 58.0536 18.636C57.4469 18.9627 56.7656 19.126 56.0096 19.126ZM56.0096 17.418C56.3643 17.418 56.6956 17.334 57.0036 17.166C57.3209 16.9887 57.5729 16.7273 57.7596 16.382C57.9463 16.0367 58.0396 15.6167 58.0396 15.122C58.0396 14.3847 57.8436 13.82 57.4516 13.428C57.0689 13.0267 56.5976 12.826 56.0376 12.826C55.4776 12.826 55.0063 13.0267 54.6236 13.428C54.2503 13.82 54.0636 14.3847 54.0636 15.122C54.0636 15.8593 54.2456 16.4287 54.6096 16.83C54.9829 17.222 55.4496 17.418 56.0096 17.418ZM72.9353 9.228V19H70.9753V14.842H66.7893V19H64.8293V9.228H66.7893V13.246H70.9753V9.228H72.9353ZM78.3084 19.126C77.5618 19.126 76.8898 18.9627 76.2924 18.636C75.6951 18.3 75.2238 17.8287 74.8784 17.222C74.5424 16.6153 74.3744 15.9153 74.3744 15.122C74.3744 14.3287 74.5471 13.6287 74.8924 13.022C75.2471 12.4153 75.7278 11.9487 76.3344 11.622C76.9411 11.286 77.6178 11.118 78.3644 11.118C79.1111 11.118 79.7878 11.286 80.3944 11.622C81.0011 11.9487 81.4771 12.4153 81.8224 13.022C82.1771 13.6287 82.3544 14.3287 82.3544 15.122C82.3544 15.9153 82.1724 16.6153 81.8084 17.222C81.4538 17.8287 80.9684 18.3 80.3524 18.636C79.7458 18.9627 79.0644 19.126 78.3084 19.126ZM78.3084 17.418C78.6631 17.418 78.9944 17.334 79.3024 17.166C79.6198 16.9887 79.8718 16.7273 80.0584 16.382C80.2451 16.0367 80.3384 15.6167 80.3384 15.122C80.3384 14.3847 80.1424 13.82 79.7504 13.428C79.3678 13.0267 78.8964 12.826 78.3364 12.826C77.7764 12.826 77.3051 13.0267 76.9224 13.428C76.5491 13.82 76.3624 14.3847 76.3624 15.122C76.3624 15.8593 76.5444 16.4287 76.9084 16.83C77.2818 17.222 77.7484 17.418 78.3084 17.418ZM91.1142 11.244V19H89.1402V18.02C88.8882 18.356 88.5568 18.622 88.1462 18.818C87.7448 19.0047 87.3062 19.098 86.8302 19.098C86.2235 19.098 85.6868 18.972 85.2202 18.72C84.7535 18.4587 84.3848 18.0807 84.1142 17.586C83.8528 17.082 83.7222 16.4847 83.7222 15.794V11.244H85.6822V15.514C85.6822 16.13 85.8362 16.606 86.1442 16.942C86.4522 17.2687 86.8722 17.432 87.4042 17.432C87.9455 17.432 88.3702 17.2687 88.6782 16.942C88.9862 16.606 89.1402 16.13 89.1402 15.514V11.244H91.1142ZM95.008 12.448C95.26 12.0373 95.5867 11.7153 95.988 11.482C96.3987 11.2487 96.8654 11.132 97.388 11.132V13.19H96.87C96.254 13.19 95.7874 13.3347 95.47 13.624C95.162 13.9133 95.008 14.4173 95.008 15.136V19H93.048V11.244H95.008V12.448ZM101.676 19.126C101.042 19.126 100.472 19.014 99.9682 18.79C99.4642 18.5567 99.0629 18.244 98.7642 17.852C98.4749 17.46 98.3162 17.026 98.2882 16.55H100.262C100.3 16.8487 100.444 17.096 100.696 17.292C100.958 17.488 101.28 17.586 101.662 17.586C102.036 17.586 102.325 17.5113 102.53 17.362C102.745 17.2127 102.852 17.0213 102.852 16.788C102.852 16.536 102.722 16.3493 102.46 16.228C102.208 16.0973 101.802 15.9573 101.242 15.808C100.664 15.668 100.188 15.5233 99.8142 15.374C99.4502 15.2247 99.1329 14.996 98.8622 14.688C98.6009 14.38 98.4702 13.9647 98.4702 13.442C98.4702 13.0127 98.5915 12.6207 98.8342 12.266C99.0862 11.9113 99.4409 11.6313 99.8982 11.426C100.365 11.2207 100.911 11.118 101.536 11.118C102.46 11.118 103.198 11.3513 103.748 11.818C104.299 12.2753 104.602 12.896 104.658 13.68H102.782C102.754 13.372 102.624 13.1293 102.39 12.952C102.166 12.7653 101.863 12.672 101.48 12.672C101.126 12.672 100.85 12.7373 100.654 12.868C100.468 12.9987 100.374 13.1807 100.374 13.414C100.374 13.6753 100.505 13.876 100.766 14.016C101.028 14.1467 101.434 14.282 101.984 14.422C102.544 14.562 103.006 14.7067 103.37 14.856C103.734 15.0053 104.047 15.2387 104.308 15.556C104.579 15.864 104.719 16.2747 104.728 16.788C104.728 17.236 104.602 17.6373 104.35 17.992C104.108 18.3467 103.753 18.6267 103.286 18.832C102.829 19.028 102.292 19.126 101.676 19.126Z" fill="#354563"/>
</g>
<defs>
<filter id="filter0_d_334_244" x="0" y="0" width="150.859" height="36" filterUnits="userSpaceOnUse" color-interpolation-filters="sRGB">
<feFlood flood-opacity="0" result="BackgroundImageFix"/>
<feColorMatrix in="SourceAlpha" type="matrix" values="0 0 0 0 0 0 0 0 0 0 0 0 0 0 0 0 0 0 127 0" result="hardAlpha"/>
<feOffset dy="4"/>
<feGaussianBlur stdDeviation="2"/>
<feComposite in2="hardAlpha" operator="out"/>
<feColorMatrix type="matrix" values="0 0 0 0 0 0 0 0 0 0 0 0 0 0 0 0 0 0 0.25 0"/>
<feBlend mode="normal" in2="BackgroundImageFix" result="effect1_dropShadow_334_244"/>
<feBlend mode="normal" in="SourceGraphic" in2="effect1_dropShadow_334_244" result="shape"/>
</filter>
</defs>
</svg>
