<svg width="103" height="102" viewBox="0 0 103 102" fill="none" xmlns="http://www.w3.org/2000/svg">
<g filter="url(#filter0_d_334_263)">
<path d="M77.0169 41.5265L91.769 37.6153C94.436 36.9082 97.0192 38.5056 97.3538 41.0143C97.6896 43.5309 95.6006 45.7514 92.83 45.7514H77.5678C76.6446 45.7514 75.7742 44.9769 75.6263 43.8621C75.4777 42.7422 76.1218 41.7638 77.0169 41.5265ZM15.0564 27.6188L28.2693 35.1669C29.0781 35.629 29.4496 36.7488 29.0117 37.7977C28.5792 38.8335 27.5406 39.356 26.6477 39.1192L11.9379 35.2192C9.24704 34.5058 7.79734 31.8073 8.78423 29.4561C9.76256 27.1253 12.6662 26.2533 15.0564 27.6188ZM25.9831 52.4735L11.231 56.3847C8.56399 57.0918 5.98083 55.4944 5.64616 52.9858C5.31042 50.4691 7.39944 48.2486 10.17 48.2486H25.4322C26.3554 48.2486 27.2258 49.0231 27.3737 50.1379C27.5223 51.2578 26.8782 52.2362 25.9831 52.4735ZM87.9436 66.3813L74.7307 58.8331C73.9219 58.3711 73.5504 57.2512 73.9883 56.2024C74.4208 55.1665 75.4594 54.6441 76.3523 54.8808L91.0621 58.7808C93.753 59.4942 95.2027 62.1927 94.2158 64.5439C93.2374 66.8747 90.3338 67.7467 87.9436 66.3813ZM70.8567 29.6036L81.6185 18.9551C83.5754 17.0188 86.6078 17.1088 88.1612 19.1065C89.7332 21.1282 89.028 24.1233 86.6007 25.51L73.4536 33.0205C72.6483 33.4806 71.5081 33.2435 70.8204 32.3542C70.1208 31.4497 70.1898 30.2635 70.8567 29.6036ZM29.7621 12.2227L37.3471 25.2221C37.823 26.0376 37.5805 27.2071 36.6668 27.9027C35.7684 28.5866 34.5997 28.5211 33.9361 27.8645L23.2366 17.2776C21.2446 15.3066 21.3382 12.2218 23.3863 10.6709C25.4101 9.1384 28.3712 9.83903 29.7621 12.2227ZM32.1433 64.3964L21.3815 75.045C19.4246 76.9812 16.3922 76.8913 14.8388 74.8935C13.2668 72.8718 13.972 69.8767 16.3993 68.4901L29.5463 60.9795C30.3517 60.5195 31.4919 60.7566 32.1796 61.6458C32.8792 62.5503 32.8102 63.7366 32.1433 64.3964ZM73.2379 81.7774L65.6529 68.778C65.177 67.9624 65.4195 66.7929 66.3332 66.0973C67.2316 65.4134 68.4003 65.479 69.0639 66.1355L79.7634 76.7224C81.7554 78.6935 81.6618 81.7783 79.6137 83.3291C77.5899 84.8616 74.6288 84.161 73.2379 81.7774ZM59.4743 22.3295L63.3882 7.87664C64.1126 5.20159 66.8034 3.75175 69.1635 4.71646C71.5443 5.68963 72.4328 8.6475 71.0203 11.0682L63.4736 24.0019C62.9998 24.814 61.8797 25.1819 60.829 24.7501C59.7652 24.313 59.2265 23.2447 59.4743 22.3295ZM50.2514 6.19981V21.1289C50.2514 22.0776 49.4556 22.9677 48.3172 23.1164C47.1838 23.2644 46.19 22.6145 45.9428 21.7016L42.0404 7.29114C41.3095 4.59214 42.9296 1.96915 45.4772 1.63817C48.0166 1.30825 50.2514 3.41504 50.2514 6.19981ZM43.5256 71.6705L39.6118 86.1234C38.8874 88.7984 36.1966 90.2483 33.8365 89.2836C31.4557 88.3104 30.5672 85.3525 31.9797 82.9318L39.5264 69.9981C40.0002 69.186 41.1203 68.8181 42.171 69.2499C43.2348 69.687 43.7735 70.7553 43.5256 71.6705ZM52.7486 87.8002V72.8711C52.7486 71.9224 53.5444 71.0323 54.6828 70.8836C55.8161 70.7356 56.81 71.3855 57.0572 72.2984L60.9596 86.7089C61.6904 89.4079 60.0704 92.0309 57.5228 92.3618C54.9834 92.6917 52.7486 90.585 52.7486 87.8002Z" fill="#FF7347" stroke="#354563" stroke-width="2.49722"/>
<circle cx="51.5757" cy="47.1426" r="20.7514" fill="#FF7347" stroke="#354563" stroke-width="2.49722"/>
</g>
<defs>
<filter id="filter0_d_334_263" x="0.36084" y="0.354248" width="102.278" height="101.292" filterUnits="userSpaceOnUse" color-interpolation-filters="sRGB">
<feFlood flood-opacity="0" result="BackgroundImageFix"/>
<feColorMatrix in="SourceAlpha" type="matrix" values="0 0 0 0 0 0 0 0 0 0 0 0 0 0 0 0 0 0 127 0" result="hardAlpha"/>
<feOffset dy="4"/>
<feGaussianBlur stdDeviation="2"/>
<feComposite in2="hardAlpha" operator="out"/>
<feColorMatrix type="matrix" values="0 0 0 0 0 0 0 0 0 0 0 0 0 0 0 0 0 0 0.25 0"/>
<feBlend mode="normal" in2="BackgroundImageFix" result="effect1_dropShadow_334_263"/>
<feBlend mode="normal" in="SourceGraphic" in2="effect1_dropShadow_334_263" result="shape"/>
</filter>
</defs>
</svg>
