<svg width="251" height="300" viewBox="0 0 251 300" fill="none" xmlns="http://www.w3.org/2000/svg">
<path d="M296.734 130.682C297.968 140.058 290.187 148 280.365 148H232.443C228.332 148 224.838 144.617 224.259 140.224C223.681 135.83 226.181 131.658 230.151 130.594L276.441 118.191C285.928 115.649 295.499 121.306 296.734 130.682ZM24.5946 114.327C15.1074 111.785 9.6468 102.1 13.2658 93.3629C16.8849 84.6258 27.5945 81.6386 36.1005 86.5496L77.6027 110.511C81.1622 112.566 82.4972 117.243 80.8014 121.337C79.1057 125.431 74.8544 127.794 70.8843 126.731L24.5946 114.327ZM3.26616 169.318C2.03178 159.942 9.81304 152 19.6349 152H67.5575C71.6676 152 75.1624 155.383 75.7408 159.776C76.3192 164.17 73.8191 168.342 69.849 169.406L23.5594 181.809C14.0722 184.351 4.50055 178.694 3.26616 169.318ZM275.405 185.673C284.893 188.215 290.353 197.9 286.734 206.637C283.115 215.374 272.405 218.361 263.899 213.451L222.397 189.489C218.838 187.434 217.503 182.757 219.199 178.663C220.894 174.569 225.146 172.206 229.116 173.27L275.405 185.673ZM267.416 59.9033C273.173 67.4061 270.405 78.1745 261.9 83.0854L220.397 107.047C216.838 109.102 212.12 107.919 209.422 104.404C206.725 100.888 206.804 96.0249 209.71 93.1185L243.596 59.2322C250.541 52.2871 261.659 52.4006 267.416 59.9033ZM59.2321 56.4038C52.287 49.4587 52.4005 38.3408 59.9033 32.5837C67.406 26.8267 78.1744 29.5946 83.0853 38.1005L107.047 79.6027C109.102 83.1622 107.919 87.8803 104.404 90.5779C100.888 93.2754 96.0248 93.1965 93.1185 90.2901L59.2321 56.4038ZM32.5837 240.097C26.8266 232.594 29.5945 221.826 38.1005 216.915L79.6026 192.953C83.1621 190.898 87.8802 192.081 90.5778 195.596C93.2753 199.112 93.1964 203.975 90.2901 206.882L56.4037 240.768C49.4586 247.713 38.3407 247.599 32.5837 240.097ZM240.768 243.596C247.713 250.541 247.599 261.659 240.097 267.416C232.594 273.173 221.826 270.406 216.915 261.9L192.953 220.397C190.898 216.838 192.081 212.12 195.596 209.422C199.112 206.725 203.975 206.804 206.882 209.71L240.768 243.596ZM206.637 13.2658C215.374 16.8849 218.361 27.5945 213.451 36.1005L189.489 77.6027C187.434 81.1622 182.757 82.4972 178.663 80.8014C174.569 79.1057 172.206 74.8544 173.27 70.8843L185.673 24.5946C188.215 15.1075 197.9 9.64681 206.637 13.2658ZM118.191 23.5593C115.649 14.0722 121.306 4.50054 130.682 3.26616C140.058 2.03178 148 9.81305 148 19.6349V67.5574C148 71.6676 144.617 75.1624 140.224 75.7408C135.83 76.3192 131.658 73.8191 130.594 69.849L118.191 23.5593ZM93.3628 286.734C84.6257 283.115 81.6385 272.405 86.5495 263.9L110.511 222.397C112.566 218.838 117.243 217.503 121.337 219.199C125.431 220.894 127.794 225.146 126.73 229.116L114.327 275.405C111.785 284.893 102.1 290.353 93.3628 286.734ZM181.809 276.441C184.351 285.928 178.694 295.499 169.318 296.734C159.942 297.968 152 290.187 152 280.365V232.443C152 228.332 155.383 224.838 159.776 224.259C164.17 223.681 168.342 226.181 169.406 230.151L181.809 276.441Z" fill="#FF7347" stroke="#354563" stroke-width="4"/>
<path d="M204.018 150C204.018 179.834 179.834 204.018 150 204.018C120.167 204.018 95.9817 179.834 95.9817 150C95.9817 120.167 120.167 95.9817 150 95.9817C179.834 95.9817 204.018 120.167 204.018 150Z" fill="#FF7347" stroke="#354563" stroke-width="4"/>
</svg>
