<svg width="143" height="29" viewBox="0 0 143 29" fill="none" xmlns="http://www.w3.org/2000/svg">
<rect y="0.142578" width="142.859" height="28" rx="14" fill="#B8E1D1"/>
<path d="M15.1535 19.7406C14.4721 19.7406 13.8561 19.6239 13.3055 19.3906C12.7641 19.1572 12.3348 18.8212 12.0175 18.3826C11.7001 17.9439 11.5368 17.4259 11.5275 16.8286H13.6275C13.6555 17.2299 13.7955 17.5472 14.0475 17.7806C14.3088 18.0139 14.6635 18.1306 15.1115 18.1306C15.5688 18.1306 15.9281 18.0232 16.1895 17.8086C16.4508 17.5846 16.5815 17.2952 16.5815 16.9406C16.5815 16.6512 16.4928 16.4132 16.3155 16.2266C16.1381 16.0399 15.9141 15.8952 15.6435 15.7926C15.3821 15.6806 15.0181 15.5592 14.5515 15.4286C13.9168 15.2419 13.3988 15.0599 12.9975 14.8826C12.6055 14.6959 12.2648 14.4206 11.9755 14.0566C11.6955 13.6832 11.5555 13.1886 11.5555 12.5726C11.5555 11.9939 11.7001 11.4899 11.9895 11.0606C12.2788 10.6312 12.6848 10.3046 13.2075 10.0806C13.7301 9.84724 14.3275 9.73058 14.9995 9.73058C16.0075 9.73058 16.8241 9.97791 17.4495 10.4726C18.0841 10.9579 18.4341 11.6392 18.4995 12.5166H16.3435C16.3248 12.1806 16.1801 11.9052 15.9095 11.6906C15.6481 11.4666 15.2981 11.3546 14.8595 11.3546C14.4768 11.3546 14.1688 11.4526 13.9355 11.6486C13.7115 11.8446 13.5995 12.1292 13.5995 12.5026C13.5995 12.7639 13.6835 12.9832 13.8515 13.1606C14.0288 13.3286 14.2435 13.4686 14.4955 13.5806C14.7568 13.6832 15.1208 13.8046 15.5875 13.9446C16.2221 14.1312 16.7401 14.3179 17.1415 14.5046C17.5428 14.6912 17.8881 14.9712 18.1775 15.3446C18.4668 15.7179 18.6115 16.2079 18.6115 16.8146C18.6115 17.3372 18.4761 17.8226 18.2055 18.2706C17.9348 18.7186 17.5381 19.0779 17.0155 19.3486C16.4928 19.6099 15.8721 19.7406 15.1535 19.7406ZM22.5927 13.4966V17.2486C22.5927 17.5099 22.6534 17.7012 22.7747 17.8226C22.9054 17.9346 23.1201 17.9906 23.4187 17.9906H24.3287V19.6426H23.0967C21.4447 19.6426 20.6187 18.8399 20.6187 17.2346V13.4966H19.6947V11.8866H20.6187V9.96858H22.5927V11.8866H24.3287V13.4966H22.5927ZM33.0605 11.8866V19.6426H31.0865V18.6626C30.8345 18.9986 30.5031 19.2646 30.0925 19.4606C29.6911 19.6472 29.2525 19.7406 28.7765 19.7406C28.1698 19.7406 27.6331 19.6146 27.1665 19.3626C26.6998 19.1012 26.3311 18.7232 26.0605 18.2286C25.7991 17.7246 25.6685 17.1272 25.6685 16.4366V11.8866H27.6285V16.1566C27.6285 16.7726 27.7825 17.2486 28.0905 17.5846C28.3985 17.9112 28.8185 18.0746 29.3505 18.0746C29.8918 18.0746 30.3165 17.9112 30.6245 17.5846C30.9325 17.2486 31.0865 16.7726 31.0865 16.1566V11.8866H33.0605ZM34.4903 15.7366C34.4903 14.9526 34.6443 14.2572 34.9523 13.6506C35.2697 13.0439 35.699 12.5772 36.2403 12.2506C36.7817 11.9239 37.3837 11.7606 38.0463 11.7606C38.5503 11.7606 39.031 11.8726 39.4883 12.0966C39.9457 12.3112 40.3097 12.6006 40.5803 12.9646V9.28258H42.5683V19.6426H40.5803V18.4946C40.3377 18.8772 39.997 19.1852 39.5583 19.4186C39.1197 19.6519 38.611 19.7686 38.0323 19.7686C37.379 19.7686 36.7817 19.6006 36.2403 19.2646C35.699 18.9286 35.2697 18.4572 34.9523 17.8506C34.6443 17.2346 34.4903 16.5299 34.4903 15.7366ZM40.5943 15.7646C40.5943 15.2886 40.501 14.8826 40.3143 14.5466C40.1277 14.2012 39.8757 13.9399 39.5583 13.7626C39.241 13.5759 38.9003 13.4826 38.5363 13.4826C38.1723 13.4826 37.8363 13.5712 37.5283 13.7486C37.2203 13.9259 36.9683 14.1872 36.7723 14.5326C36.5857 14.8686 36.4923 15.2699 36.4923 15.7366C36.4923 16.2032 36.5857 16.6139 36.7723 16.9686C36.9683 17.3139 37.2203 17.5799 37.5283 17.7666C37.8457 17.9532 38.1817 18.0466 38.5363 18.0466C38.9003 18.0466 39.241 17.9579 39.5583 17.7806C39.8757 17.5939 40.1277 17.3326 40.3143 16.9966C40.501 16.6512 40.5943 16.2406 40.5943 15.7646ZM45.4766 10.9626C45.1313 10.9626 44.8419 10.8552 44.6086 10.6406C44.3846 10.4166 44.2726 10.1412 44.2726 9.81458C44.2726 9.48791 44.3846 9.21724 44.6086 9.00258C44.8419 8.77858 45.1313 8.66658 45.4766 8.66658C45.8219 8.66658 46.1066 8.77858 46.3306 9.00258C46.5639 9.21724 46.6806 9.48791 46.6806 9.81458C46.6806 10.1412 46.5639 10.4166 46.3306 10.6406C46.1066 10.8552 45.8219 10.9626 45.4766 10.9626ZM46.4426 11.8866V19.6426H44.4826V11.8866H46.4426ZM51.8231 19.7686C51.0764 19.7686 50.4044 19.6052 49.8071 19.2786C49.2098 18.9426 48.7384 18.4712 48.3931 17.8646C48.0571 17.2579 47.8891 16.5579 47.8891 15.7646C47.8891 14.9712 48.0618 14.2712 48.4071 13.6646C48.7618 13.0579 49.2424 12.5912 49.8491 12.2646C50.4558 11.9286 51.1324 11.7606 51.8791 11.7606C52.6258 11.7606 53.3024 11.9286 53.9091 12.2646C54.5158 12.5912 54.9918 13.0579 55.3371 13.6646C55.6918 14.2712 55.8691 14.9712 55.8691 15.7646C55.8691 16.5579 55.6871 17.2579 55.3231 17.8646C54.9684 18.4712 54.4831 18.9426 53.8671 19.2786C53.2604 19.6052 52.5791 19.7686 51.8231 19.7686ZM51.8231 18.0606C52.1778 18.0606 52.5091 17.9766 52.8171 17.8086C53.1344 17.6312 53.3864 17.3699 53.5731 17.0246C53.7598 16.6792 53.8531 16.2592 53.8531 15.7646C53.8531 15.0272 53.6571 14.4626 53.2651 14.0706C52.8824 13.6692 52.4111 13.4686 51.8511 13.4686C51.2911 13.4686 50.8198 13.6692 50.4371 14.0706C50.0638 14.4626 49.8771 15.0272 49.8771 15.7646C49.8771 16.5019 50.0591 17.0712 50.4231 17.4726C50.7964 17.8646 51.2631 18.0606 51.8231 18.0606ZM68.7488 9.87058V19.6426H66.7888V15.4846H62.6028V19.6426H60.6428V9.87058H62.6028V13.8886H66.7888V9.87058H68.7488ZM74.1219 19.7686C73.3752 19.7686 72.7032 19.6052 72.1059 19.2786C71.5086 18.9426 71.0372 18.4712 70.6919 17.8646C70.3559 17.2579 70.1879 16.5579 70.1879 15.7646C70.1879 14.9712 70.3606 14.2712 70.7059 13.6646C71.0606 13.0579 71.5412 12.5912 72.1479 12.2646C72.7546 11.9286 73.4312 11.7606 74.1779 11.7606C74.9246 11.7606 75.6012 11.9286 76.2079 12.2646C76.8146 12.5912 77.2906 13.0579 77.6359 13.6646C77.9906 14.2712 78.1679 14.9712 78.1679 15.7646C78.1679 16.5579 77.9859 17.2579 77.6219 17.8646C77.2672 18.4712 76.7819 18.9426 76.1659 19.2786C75.5592 19.6052 74.8779 19.7686 74.1219 19.7686ZM74.1219 18.0606C74.4766 18.0606 74.8079 17.9766 75.1159 17.8086C75.4332 17.6312 75.6852 17.3699 75.8719 17.0246C76.0586 16.6792 76.1519 16.2592 76.1519 15.7646C76.1519 15.0272 75.9559 14.4626 75.5639 14.0706C75.1812 13.6692 74.7099 13.4686 74.1499 13.4686C73.5899 13.4686 73.1186 13.6692 72.7359 14.0706C72.3626 14.4626 72.1759 15.0272 72.1759 15.7646C72.1759 16.5019 72.3579 17.0712 72.7219 17.4726C73.0952 17.8646 73.5619 18.0606 74.1219 18.0606ZM86.9276 11.8866V19.6426H84.9536V18.6626C84.7016 18.9986 84.3703 19.2646 83.9596 19.4606C83.5583 19.6472 83.1196 19.7406 82.6436 19.7406C82.037 19.7406 81.5003 19.6146 81.0336 19.3626C80.567 19.1012 80.1983 18.7232 79.9276 18.2286C79.6663 17.7246 79.5356 17.1272 79.5356 16.4366V11.8866H81.4956V16.1566C81.4956 16.7726 81.6496 17.2486 81.9576 17.5846C82.2656 17.9112 82.6856 18.0746 83.2176 18.0746C83.759 18.0746 84.1836 17.9112 84.4916 17.5846C84.7996 17.2486 84.9536 16.7726 84.9536 16.1566V11.8866H86.9276ZM90.8215 13.0906C91.0735 12.6799 91.4002 12.3579 91.8015 12.1246C92.2122 11.8912 92.6788 11.7746 93.2015 11.7746V13.8326H92.6835C92.0675 13.8326 91.6008 13.9772 91.2835 14.2666C90.9755 14.5559 90.8215 15.0599 90.8215 15.7786V19.6426H88.8615V11.8866H90.8215V13.0906ZM97.4897 19.7686C96.855 19.7686 96.2857 19.6566 95.7817 19.4326C95.2777 19.1992 94.8763 18.8866 94.5777 18.4946C94.2883 18.1026 94.1297 17.6686 94.1017 17.1926H96.0757C96.113 17.4912 96.2577 17.7386 96.5097 17.9346C96.771 18.1306 97.093 18.2286 97.4757 18.2286C97.849 18.2286 98.1383 18.1539 98.3437 18.0046C98.5583 17.8552 98.6657 17.6639 98.6657 17.4306C98.6657 17.1786 98.535 16.9919 98.2737 16.8706C98.0217 16.7399 97.6157 16.5999 97.0557 16.4506C96.477 16.3106 96.001 16.1659 95.6277 16.0166C95.2637 15.8672 94.9463 15.6386 94.6757 15.3306C94.4143 15.0226 94.2837 14.6072 94.2837 14.0846C94.2837 13.6552 94.405 13.2632 94.6477 12.9086C94.8997 12.5539 95.2543 12.2739 95.7117 12.0686C96.1783 11.8632 96.7243 11.7606 97.3497 11.7606C98.2737 11.7606 99.011 11.9939 99.5617 12.4606C100.112 12.9179 100.416 13.5386 100.472 14.3226H98.5957C98.5677 14.0146 98.437 13.7719 98.2037 13.5946C97.9797 13.4079 97.6763 13.3146 97.2937 13.3146C96.939 13.3146 96.6637 13.3799 96.4677 13.5106C96.281 13.6412 96.1877 13.8232 96.1877 14.0566C96.1877 14.3179 96.3183 14.5186 96.5797 14.6586C96.841 14.7892 97.247 14.9246 97.7977 15.0646C98.3577 15.2046 98.8197 15.3492 99.1837 15.4986C99.5477 15.6479 99.8603 15.8812 100.122 16.1986C100.392 16.5066 100.532 16.9172 100.542 17.4306C100.542 17.8786 100.416 18.2799 100.164 18.6346C99.921 18.9892 99.5663 19.2692 99.0997 19.4746C98.6423 19.6706 98.1057 19.7686 97.4897 19.7686Z" fill="#354563"/>
</svg>
