<svg width="752" height="319" viewBox="0 0 752 319" fill="none" xmlns="http://www.w3.org/2000/svg">
<path d="M451.885 267.998L450.647 268.161L451.885 267.998C451.737 266.88 452.379 265.903 453.275 265.663L467.779 261.776C470.445 261.062 473.03 262.661 473.36 265.171C473.69 267.681 471.607 269.894 468.848 269.894H453.832C452.905 269.894 452.032 269.116 451.885 267.998ZM388.867 259.364C386.202 258.65 384.762 255.973 385.731 253.634C386.7 251.295 389.611 250.42 392.001 251.8L405.005 259.308C405.807 259.771 406.175 260.882 405.743 261.924C405.312 262.965 404.267 263.491 403.371 263.251L388.867 259.364ZM431.144 295.027L430.981 293.789L431.144 295.027C432.262 294.88 433.24 295.522 433.48 296.418L437.366 310.922C438.08 313.587 436.482 316.172 433.972 316.503C431.462 316.833 429.249 314.75 429.249 311.99V296.975C429.249 296.047 430.027 295.174 431.144 295.027ZM382.64 277.114C382.31 274.604 384.393 272.391 387.152 272.391H402.168C403.095 272.391 403.968 273.169 404.115 274.287C404.263 275.405 403.621 276.382 402.725 276.622L388.221 280.509C385.555 281.223 382.97 279.625 382.64 277.114ZM467.133 282.921C469.798 283.635 471.238 286.312 470.269 288.651C469.3 290.99 466.389 291.865 463.999 290.485L450.995 282.977C450.193 282.514 449.825 281.403 450.257 280.362C450.688 279.32 451.733 278.795 452.629 279.034L467.133 282.921ZM464.297 243.291C465.838 245.3 465.141 248.258 462.751 249.637L449.747 257.145C448.944 257.609 447.799 257.372 447.112 256.477C446.426 255.583 446.493 254.415 447.149 253.76L457.767 243.142C459.718 241.19 462.756 241.282 464.297 243.291ZM399.999 241.376C398.048 239.425 398.14 236.387 400.148 234.846C402.157 233.304 405.115 234.002 406.495 236.392L414.003 249.396C414.466 250.199 414.229 251.344 413.335 252.03C412.44 252.717 411.272 252.649 410.617 251.994L399.999 241.376ZM391.703 298.994C390.162 296.986 390.859 294.028 393.249 292.648L406.253 285.14C407.056 284.676 408.201 284.913 408.888 285.808C409.574 286.703 409.507 287.87 408.851 288.526L398.233 299.143C396.282 301.095 393.244 301.003 391.703 298.994ZM456.001 300.909C457.952 302.861 457.86 305.898 455.852 307.44C453.843 308.981 450.885 308.283 449.505 305.893L441.997 292.889C441.534 292.087 441.771 290.941 442.665 290.255C443.56 289.569 444.728 289.636 445.383 290.291L456.001 300.909ZM445.508 228.874C447.847 229.843 448.722 232.753 447.343 235.143L439.835 248.147C439.371 248.95 438.261 249.317 437.219 248.886C436.177 248.454 435.652 247.409 435.892 246.514L439.778 232.01C440.492 229.344 443.169 227.905 445.508 228.874ZM418.634 231.364C417.92 228.698 419.518 226.113 422.028 225.783C424.538 225.452 426.751 227.535 426.751 230.295V245.311C426.751 246.238 425.973 247.111 424.856 247.258C423.738 247.405 422.76 246.763 422.52 245.868L418.634 231.364ZM410.492 313.411C408.153 312.442 407.278 309.532 408.657 307.142L416.165 294.138C416.629 293.335 417.739 292.968 418.781 293.399C419.823 293.831 420.348 294.876 420.108 295.771L416.222 310.275C415.508 312.941 412.831 314.38 410.492 313.411Z" fill="#FF7347" stroke="#354563" stroke-width="2.49722"/>
<circle cx="428" cy="271.143" r="20.7514" fill="#FF7347" stroke="#354563" stroke-width="2.49722"/>
<path fill-rule="evenodd" clip-rule="evenodd" d="M340.612 48.5603C339.464 48.8149 337.848 49.1731 336.467 49.9986C333.208 51.9458 332.131 55.111 331.778 58.1541C331.544 60.1683 331.595 62.5667 331.644 64.8944C331.665 65.8504 331.685 66.7945 331.685 67.6951L337.504 67.6951C337.504 66.4468 337.479 65.3137 337.456 64.2687C337.41 62.1728 337.371 60.4313 337.558 58.8258C337.814 56.6217 338.42 55.6101 339.451 54.9937C339.91 54.7198 340.606 54.5219 341.914 54.2319C341.999 54.2131 342.086 54.1939 342.176 54.1741C343.291 53.929 344.787 53.6004 346.186 52.9625C347.798 52.2273 349.379 51.0502 350.505 49.0712C351.599 47.1495 352.123 44.7195 352.123 41.7061H346.304C346.304 44.0877 345.884 45.4265 345.448 46.1928C345.045 46.9018 344.509 47.3318 343.771 47.668C342.953 48.0413 342.021 48.2479 340.746 48.5306C340.715 48.5374 340.685 48.5441 340.654 48.5509L340.612 48.5603Z" fill="#FF7347" stroke="#354563" stroke-width="1.93967"/>
<path d="M365.373 29.2626C356.875 21.2177 352.964 14.75 349.604 3.87891C347.034 12.4769 346.175 18.3347 335.824 29.2626H342.028L329.189 44.4366H369.166L356.91 29.2626H365.373Z" fill="#B8E1D1" stroke="#354563" stroke-width="1.93967"/>
<path fill-rule="evenodd" clip-rule="evenodd" d="M498.168 166.502C497.02 166.757 495.405 167.115 494.023 167.94C490.764 169.888 489.688 173.053 489.334 176.096C489.1 178.11 489.151 180.509 489.201 182.836C489.221 183.792 489.241 184.736 489.241 185.637L495.06 185.637C495.06 184.389 495.036 183.256 495.012 182.211C494.966 180.115 494.928 178.373 495.114 176.768C495.371 174.564 495.976 173.552 497.008 172.936C497.466 172.662 498.163 172.464 499.471 172.174C499.555 172.155 499.643 172.136 499.733 172.116C500.848 171.871 502.344 171.542 503.742 170.904C505.355 170.169 506.936 168.992 508.062 167.013C509.156 165.091 509.679 162.661 509.679 159.648H503.86C503.86 162.03 503.441 163.368 503.005 164.135C502.601 164.844 502.065 165.274 501.328 165.61C500.51 165.983 499.577 166.19 498.302 166.473C498.272 166.479 498.241 166.486 498.211 166.493L498.168 166.502Z" fill="#FF7347" stroke="#354563" stroke-width="1.93967"/>
<path d="M522.929 147.204C514.432 139.16 510.52 132.692 507.16 121.821C504.591 130.419 503.731 136.277 493.38 147.204H499.584L486.745 162.378H526.722L514.467 147.204H522.929Z" fill="#B8E1D1" stroke="#354563" stroke-width="1.93967"/>
<path fill-rule="evenodd" clip-rule="evenodd" d="M180.57 166.502C179.422 166.757 177.806 167.115 176.425 167.94C173.166 169.888 172.089 173.053 171.736 176.096C171.502 178.11 171.553 180.509 171.602 182.836C171.623 183.792 171.643 184.736 171.643 185.637L177.462 185.637C177.462 184.389 177.437 183.256 177.414 182.211C177.368 180.115 177.329 178.373 177.516 176.768C177.772 174.564 178.378 173.552 179.409 172.936C179.868 172.662 180.564 172.464 181.872 172.174C181.957 172.155 182.044 172.136 182.134 172.116C183.249 171.871 184.745 171.542 186.144 170.904C187.756 170.169 189.337 168.992 190.463 167.013C191.557 165.091 192.081 162.661 192.081 159.648H186.262C186.262 162.03 185.842 163.368 185.406 164.135C185.003 164.844 184.467 165.274 183.729 165.61C182.911 165.983 181.979 166.19 180.704 166.473C180.673 166.479 180.643 166.486 180.612 166.493L180.57 166.502Z" fill="#FF7347" stroke="#354563" stroke-width="1.93967"/>
<path d="M205.331 147.204C196.833 139.16 192.922 132.692 189.562 121.821C186.992 130.419 186.133 136.277 175.782 147.204H181.986L169.147 162.378H209.124L196.868 147.204H205.331Z" fill="#B8E1D1" stroke="#354563" stroke-width="1.93967"/>
<path fill-rule="evenodd" clip-rule="evenodd" d="M14.4233 284.445C13.2751 284.699 11.6594 285.057 10.278 285.883C7.01933 287.83 5.94287 290.995 5.58926 294.038C5.35522 296.053 5.40631 298.451 5.45589 300.779C5.47625 301.735 5.49636 302.679 5.49636 303.579L11.3154 303.579C11.3154 302.331 11.2904 301.198 11.2674 300.153C11.2212 298.057 11.1828 296.316 11.3694 294.71C11.6255 292.506 12.2313 291.494 13.2629 290.878C13.7212 290.604 14.4179 290.406 15.7255 290.116C15.8102 290.097 15.8976 290.078 15.9875 290.058C17.103 289.813 18.5985 289.485 19.9973 288.847C21.6094 288.112 23.1906 286.934 24.3169 284.956C25.4107 283.034 25.9341 280.604 25.9341 277.59H20.1151C20.1151 279.972 19.6959 281.311 19.2597 282.077C18.8562 282.786 18.3201 283.216 17.5828 283.552C16.7644 283.926 15.8323 284.132 14.5571 284.415C14.5268 284.422 14.4962 284.428 14.4655 284.435L14.4233 284.445Z" fill="#FF7347" stroke="#354563" stroke-width="1.93967"/>
<path d="M39.1841 265.147C30.6866 257.102 26.7755 250.634 23.4153 239.763C20.8458 248.361 19.9862 254.219 9.63548 265.147H15.8396L3.00013 280.321H42.9775L30.7217 265.147H39.1841Z" fill="#B8E1D1" stroke="#354563" stroke-width="1.93967"/>
<path d="M744.322 63.1926C745.48 69.1754 748.905 72.5312 748.905 72.5312C748.905 72.5312 736.447 76.1405 728.104 71.5964C722.521 68.5554 715.742 63.2961 715.743 55.8393C715.744 51.6388 717.8 48.8605 724.144 48.1015C726.785 43.1424 732.067 43.4549 735.419 45.6697C741.299 49.5544 743.164 57.2098 744.322 63.1926Z" fill="#FF7347"/>
<path d="M748.905 72.5312L749.225 73.6335L751.112 73.0867L749.708 71.7114L748.905 72.5312ZM744.322 63.1926L743.196 63.4107L744.322 63.1926ZM728.104 71.5964L728.653 70.5885L728.104 71.5964ZM735.419 45.6697L734.787 46.6272L735.419 45.6697ZM724.144 48.1015L724.28 49.241L724.875 49.1698L725.157 48.6409L724.144 48.1015ZM715.743 55.8393L714.595 55.8392L715.743 55.8393ZM748.905 72.5312C749.708 71.7114 749.709 71.7117 749.709 71.7119C749.709 71.712 749.709 71.7122 749.709 71.7124C749.71 71.7127 749.71 71.7129 749.71 71.7131C749.71 71.7134 749.711 71.7136 749.71 71.7135C749.71 71.7134 749.71 71.7125 749.708 71.7108C749.704 71.7075 749.698 71.7009 749.688 71.6911C749.669 71.6717 749.639 71.6396 749.597 71.595C749.515 71.5058 749.39 71.3669 749.235 71.1798C748.923 70.8052 748.489 70.2392 748.019 69.4931C747.077 67.9999 745.995 65.7977 745.449 62.9745L743.196 63.4107C743.807 66.5703 745.017 69.0374 746.077 70.7178C746.608 71.5585 747.102 72.2053 747.469 72.6469C747.653 72.8679 747.805 73.0379 747.914 73.1556C747.969 73.2144 748.013 73.2603 748.044 73.2929C748.06 73.3092 748.073 73.3222 748.083 73.3319C748.088 73.3367 748.092 73.3407 748.095 73.3439C748.096 73.3455 748.098 73.3468 748.099 73.348C748.1 73.3486 748.1 73.3491 748.101 73.3496C748.101 73.3499 748.101 73.3502 748.101 73.3503C748.102 73.3506 748.102 73.3509 748.905 72.5312ZM727.555 72.6042C732.021 75.0367 737.493 75.2521 741.725 74.9118C743.861 74.74 745.727 74.4226 747.06 74.1482C747.727 74.0108 748.262 73.8838 748.634 73.7903C748.819 73.7436 748.964 73.7052 749.064 73.6781C749.114 73.6646 749.152 73.6539 749.179 73.6463C749.193 73.6425 749.203 73.6395 749.211 73.6374C749.215 73.6363 749.218 73.6354 749.22 73.6348C749.221 73.6345 749.222 73.6342 749.223 73.634C749.223 73.6339 749.224 73.6337 749.224 73.6337C749.224 73.6336 749.225 73.6335 748.905 72.5312C748.586 71.4288 748.586 71.4288 748.586 71.4287C748.586 71.4287 748.586 71.4287 748.586 71.4287C748.586 71.4287 748.586 71.4287 748.586 71.4288C748.585 71.4291 748.583 71.4295 748.581 71.4301C748.577 71.4314 748.569 71.4335 748.559 71.4364C748.538 71.4423 748.506 71.4512 748.463 71.463C748.376 71.4866 748.245 71.5213 748.073 71.5644C747.731 71.6506 747.228 71.77 746.597 71.9C745.333 72.1603 743.562 72.4613 741.541 72.6239C737.459 72.9522 732.53 72.7002 728.653 70.5885L727.555 72.6042ZM745.449 62.9745C744.868 59.9715 744.094 56.4599 742.697 53.193C741.297 49.921 739.241 46.8195 736.052 44.7122L734.787 46.6272C737.477 48.4046 739.293 51.0732 740.586 54.0957C741.881 57.1234 742.619 60.4309 743.196 63.4107L745.449 62.9745ZM736.052 44.7122C734.185 43.4786 731.754 42.7518 729.369 43.057C726.932 43.369 724.627 44.7528 723.131 47.5621L725.157 48.6409C726.302 46.4911 727.958 45.5516 729.661 45.3337C731.415 45.1092 733.301 45.646 734.787 46.6272L736.052 44.7122ZM724.008 46.962C720.711 47.3564 718.316 48.2969 716.751 49.8706C715.16 51.4704 714.596 53.5518 714.595 55.8392L716.891 55.8395C716.891 53.9262 717.355 52.5183 718.379 51.4891C719.428 50.4337 721.233 49.6056 724.28 49.241L724.008 46.962ZM714.595 55.8392C714.595 59.9407 716.464 63.383 718.981 66.1465C721.492 68.9038 724.704 71.0511 727.555 72.6042L728.653 70.5885C725.922 69.1007 722.952 67.0978 720.678 64.601C718.41 62.1104 716.89 59.1947 716.891 55.8395L714.595 55.8392Z" fill="#354563"/>
<path d="M731.961 61.0781C732.412 61.5235 733.139 61.5191 733.584 61.0681C734.03 60.6172 734.025 59.8906 733.574 59.4451L731.961 61.0781ZM709.155 39.0054C708.527 38.9199 707.948 39.3598 707.863 39.9879C707.777 40.6159 708.217 41.1943 708.845 41.2798L709.155 39.0054ZM733.574 59.4451C731.391 57.2882 729.839 55.1256 728.478 53.027C727.141 50.9653 725.914 48.8395 724.49 46.9765C723.033 45.0698 721.308 43.3455 718.859 41.9607C716.419 40.5811 713.321 39.5722 709.155 39.0054L708.845 41.2798C712.804 41.8184 715.605 42.7578 717.729 43.9587C719.844 45.1545 721.346 46.643 722.666 48.3704C724.02 50.1416 725.122 52.0715 726.552 54.2761C727.958 56.4438 729.613 58.7582 731.961 61.0781L733.574 59.4451Z" fill="#354563"/>
</svg>
