<svg width="144" height="29" viewBox="0 0 144 29" fill="none" xmlns="http://www.w3.org/2000/svg">
<rect x="0.424316" y="0.57959" width="142.859" height="28" rx="14" fill="#FF7347"/>
<path d="M15.194 20.1776C14.5127 20.1776 13.8967 20.0609 13.346 19.8276C12.8047 19.5943 12.3753 19.2583 12.058 18.8196C11.7407 18.3809 11.5773 17.8629 11.568 17.2656H13.668C13.696 17.6669 13.836 17.9843 14.088 18.2176C14.3493 18.4509 14.704 18.5676 15.152 18.5676C15.6093 18.5676 15.9687 18.4603 16.23 18.2456C16.4913 18.0216 16.622 17.7323 16.622 17.3776C16.622 17.0883 16.5333 16.8503 16.356 16.6636C16.1787 16.4769 15.9547 16.3323 15.684 16.2296C15.4227 16.1176 15.0587 15.9963 14.592 15.8656C13.9573 15.6789 13.4393 15.4969 13.038 15.3196C12.646 15.1329 12.3053 14.8576 12.016 14.4936C11.736 14.1203 11.596 13.6256 11.596 13.0096C11.596 12.4309 11.7407 11.9269 12.03 11.4976C12.3193 11.0683 12.7253 10.7416 13.248 10.5176C13.7707 10.2843 14.368 10.1676 15.04 10.1676C16.048 10.1676 16.8647 10.4149 17.49 10.9096C18.1247 11.3949 18.4747 12.0763 18.54 12.9536H16.384C16.3653 12.6176 16.2207 12.3423 15.95 12.1276C15.6887 11.9036 15.3387 11.7916 14.9 11.7916C14.5173 11.7916 14.2093 11.8896 13.976 12.0856C13.752 12.2816 13.64 12.5663 13.64 12.9396C13.64 13.2009 13.724 13.4203 13.892 13.5976C14.0693 13.7656 14.284 13.9056 14.536 14.0176C14.7973 14.1203 15.1613 14.2416 15.628 14.3816C16.2627 14.5683 16.7807 14.7549 17.182 14.9416C17.5833 15.1283 17.9287 15.4083 18.218 15.7816C18.5073 16.1549 18.652 16.6449 18.652 17.2516C18.652 17.7743 18.5167 18.2596 18.246 18.7076C17.9753 19.1556 17.5787 19.5149 17.056 19.7856C16.5333 20.0469 15.9127 20.1776 15.194 20.1776ZM27.6733 12.3236V20.0796H25.6993V19.0996C25.4473 19.4356 25.1159 19.7016 24.7053 19.8976C24.3039 20.0843 23.8653 20.1776 23.3893 20.1776C22.7826 20.1776 22.2459 20.0516 21.7793 19.7996C21.3126 19.5383 20.9439 19.1603 20.6733 18.6656C20.4119 18.1616 20.2813 17.5643 20.2813 16.8736V12.3236H22.2413V16.5936C22.2413 17.2096 22.3953 17.6856 22.7033 18.0216C23.0113 18.3483 23.4313 18.5116 23.9633 18.5116C24.5046 18.5116 24.9293 18.3483 25.2373 18.0216C25.5453 17.6856 25.6993 17.2096 25.6993 16.5936V12.3236H27.6733ZM31.5671 13.4576C31.8191 13.0843 32.1644 12.7809 32.6031 12.5476C33.0511 12.3143 33.5598 12.1976 34.1291 12.1976C34.7918 12.1976 35.3891 12.3609 35.9211 12.6876C36.4624 13.0143 36.8871 13.4809 37.1951 14.0876C37.5124 14.6849 37.6711 15.3803 37.6711 16.1736C37.6711 16.9669 37.5124 17.6716 37.1951 18.2876C36.8871 18.8943 36.4624 19.3656 35.9211 19.7016C35.3891 20.0376 34.7918 20.2056 34.1291 20.2056C33.5504 20.2056 33.0418 20.0936 32.6031 19.8696C32.1738 19.6363 31.8284 19.3376 31.5671 18.9736V20.0796H29.6071V9.71959H31.5671V13.4576ZM35.6691 16.1736C35.6691 15.7069 35.5711 15.3056 35.3751 14.9696C35.1884 14.6243 34.9364 14.3629 34.6191 14.1856C34.3111 14.0083 33.9751 13.9196 33.6111 13.9196C33.2564 13.9196 32.9204 14.0129 32.6031 14.1996C32.2951 14.3769 32.0431 14.6383 31.8471 14.9836C31.6604 15.3289 31.5671 15.7349 31.5671 16.2016C31.5671 16.6683 31.6604 17.0743 31.8471 17.4196C32.0431 17.7649 32.2951 18.0309 32.6031 18.2176C32.9204 18.3949 33.2564 18.4836 33.6111 18.4836C33.9751 18.4836 34.3111 18.3903 34.6191 18.2036C34.9364 18.0169 35.1884 17.7509 35.3751 17.4056C35.5711 17.0603 35.6691 16.6496 35.6691 16.1736ZM48.7274 12.2116C49.6794 12.2116 50.4447 12.5056 51.0234 13.0936C51.6114 13.6723 51.9054 14.4843 51.9054 15.5296V20.0796H49.9454V15.7956C49.9454 15.1889 49.7914 14.7269 49.4834 14.4096C49.1754 14.0829 48.7554 13.9196 48.2234 13.9196C47.6914 13.9196 47.2667 14.0829 46.9494 14.4096C46.6414 14.7269 46.4874 15.1889 46.4874 15.7956V20.0796H44.5274V15.7956C44.5274 15.1889 44.3734 14.7269 44.0654 14.4096C43.7574 14.0829 43.3374 13.9196 42.8054 13.9196C42.2641 13.9196 41.8347 14.0829 41.5174 14.4096C41.2094 14.7269 41.0554 15.1889 41.0554 15.7956V20.0796H39.0954V12.3236H41.0554V13.2616C41.3074 12.9349 41.6294 12.6783 42.0214 12.4916C42.4227 12.3049 42.8614 12.2116 43.3374 12.2116C43.9441 12.2116 44.4854 12.3423 44.9614 12.6036C45.4374 12.8556 45.8061 13.2196 46.0674 13.6956C46.3194 13.2476 46.6834 12.8883 47.1594 12.6176C47.6447 12.3469 48.1674 12.2116 48.7274 12.2116ZM54.7593 11.3996C54.414 11.3996 54.1246 11.2923 53.8913 11.0776C53.6673 10.8536 53.5553 10.5783 53.5553 10.2516C53.5553 9.92492 53.6673 9.65426 53.8913 9.43959C54.1246 9.21559 54.414 9.10359 54.7593 9.10359C55.1046 9.10359 55.3893 9.21559 55.6133 9.43959C55.8466 9.65426 55.9633 9.92492 55.9633 10.2516C55.9633 10.5783 55.8466 10.8536 55.6133 11.0776C55.3893 11.2923 55.1046 11.3996 54.7593 11.3996ZM55.7253 12.3236V20.0796H53.7653V12.3236H55.7253ZM60.6298 20.2056C59.9951 20.2056 59.4258 20.0936 58.9218 19.8696C58.4178 19.6363 58.0165 19.3236 57.7178 18.9316C57.4285 18.5396 57.2698 18.1056 57.2418 17.6296H59.2158C59.2531 17.9283 59.3978 18.1756 59.6498 18.3716C59.9111 18.5676 60.2331 18.6656 60.6158 18.6656C60.9891 18.6656 61.2785 18.5909 61.4838 18.4416C61.6985 18.2923 61.8058 18.1009 61.8058 17.8676C61.8058 17.6156 61.6751 17.4289 61.4138 17.3076C61.1618 17.1769 60.7558 17.0369 60.1958 16.8876C59.6171 16.7476 59.1411 16.6029 58.7678 16.4536C58.4038 16.3043 58.0865 16.0756 57.8158 15.7676C57.5545 15.4596 57.4238 15.0443 57.4238 14.5216C57.4238 14.0923 57.5451 13.7003 57.7878 13.3456C58.0398 12.9909 58.3945 12.7109 58.8518 12.5056C59.3185 12.3003 59.8645 12.1976 60.4898 12.1976C61.4138 12.1976 62.1511 12.4309 62.7018 12.8976C63.2525 13.3549 63.5558 13.9756 63.6118 14.7596H61.7358C61.7078 14.4516 61.5771 14.2089 61.3438 14.0316C61.1198 13.8449 60.8165 13.7516 60.4338 13.7516C60.0791 13.7516 59.8038 13.8169 59.6078 13.9476C59.4211 14.0783 59.3278 14.2603 59.3278 14.4936C59.3278 14.7549 59.4585 14.9556 59.7198 15.0956C59.9811 15.2263 60.3871 15.3616 60.9378 15.5016C61.4978 15.6416 61.9598 15.7863 62.3238 15.9356C62.6878 16.0849 63.0005 16.3183 63.2618 16.6356C63.5325 16.9436 63.6725 17.3543 63.6818 17.8676C63.6818 18.3156 63.5558 18.7169 63.3038 19.0716C63.0611 19.4263 62.7065 19.7063 62.2398 19.9116C61.7825 20.1076 61.2458 20.2056 60.6298 20.2056ZM68.2587 20.2056C67.624 20.2056 67.0547 20.0936 66.5507 19.8696C66.0467 19.6363 65.6454 19.3236 65.3467 18.9316C65.0574 18.5396 64.8987 18.1056 64.8707 17.6296H66.8447C66.882 17.9283 67.0267 18.1756 67.2787 18.3716C67.54 18.5676 67.862 18.6656 68.2447 18.6656C68.618 18.6656 68.9074 18.5909 69.1127 18.4416C69.3274 18.2923 69.4347 18.1009 69.4347 17.8676C69.4347 17.6156 69.304 17.4289 69.0427 17.3076C68.7907 17.1769 68.3847 17.0369 67.8247 16.8876C67.246 16.7476 66.77 16.6029 66.3967 16.4536C66.0327 16.3043 65.7154 16.0756 65.4447 15.7676C65.1834 15.4596 65.0527 15.0443 65.0527 14.5216C65.0527 14.0923 65.174 13.7003 65.4167 13.3456C65.6687 12.9909 66.0234 12.7109 66.4807 12.5056C66.9474 12.3003 67.4934 12.1976 68.1187 12.1976C69.0427 12.1976 69.78 12.4309 70.3307 12.8976C70.8814 13.3549 71.1847 13.9756 71.2407 14.7596H69.3647C69.3367 14.4516 69.206 14.2089 68.9727 14.0316C68.7487 13.8449 68.4454 13.7516 68.0627 13.7516C67.708 13.7516 67.4327 13.8169 67.2367 13.9476C67.05 14.0783 66.9567 14.2603 66.9567 14.4936C66.9567 14.7549 67.0874 14.9556 67.3487 15.0956C67.61 15.2263 68.016 15.3616 68.5667 15.5016C69.1267 15.6416 69.5887 15.7863 69.9527 15.9356C70.3167 16.0849 70.6294 16.3183 70.8907 16.6356C71.1614 16.9436 71.3014 17.3543 71.3107 17.8676C71.3107 18.3156 71.1847 18.7169 70.9327 19.0716C70.69 19.4263 70.3354 19.7063 69.8687 19.9116C69.4114 20.1076 68.8747 20.2056 68.2587 20.2056ZM73.9136 11.3996C73.5683 11.3996 73.2789 11.2923 73.0456 11.0776C72.8216 10.8536 72.7096 10.5783 72.7096 10.2516C72.7096 9.92492 72.8216 9.65426 73.0456 9.43959C73.2789 9.21559 73.5683 9.10359 73.9136 9.10359C74.2589 9.10359 74.5436 9.21559 74.7676 9.43959C75.0009 9.65426 75.1176 9.92492 75.1176 10.2516C75.1176 10.5783 75.0009 10.8536 74.7676 11.0776C74.5436 11.2923 74.2589 11.3996 73.9136 11.3996ZM74.8796 12.3236V20.0796H72.9196V12.3236H74.8796ZM80.2601 20.2056C79.5134 20.2056 78.8414 20.0423 78.2441 19.7156C77.6468 19.3796 77.1754 18.9083 76.8301 18.3016C76.4941 17.6949 76.3261 16.9949 76.3261 16.2016C76.3261 15.4083 76.4988 14.7083 76.8441 14.1016C77.1988 13.4949 77.6794 13.0283 78.2861 12.7016C78.8928 12.3656 79.5694 12.1976 80.3161 12.1976C81.0628 12.1976 81.7394 12.3656 82.3461 12.7016C82.9528 13.0283 83.4288 13.4949 83.7741 14.1016C84.1288 14.7083 84.3061 15.4083 84.3061 16.2016C84.3061 16.9949 84.1241 17.6949 83.7601 18.3016C83.4054 18.9083 82.9201 19.3796 82.3041 19.7156C81.6974 20.0423 81.0161 20.2056 80.2601 20.2056ZM80.2601 18.4976C80.6148 18.4976 80.9461 18.4136 81.2541 18.2456C81.5714 18.0683 81.8234 17.8069 82.0101 17.4616C82.1968 17.1163 82.2901 16.6963 82.2901 16.2016C82.2901 15.4643 82.0941 14.8996 81.7021 14.5076C81.3194 14.1063 80.8481 13.9056 80.2881 13.9056C79.7281 13.9056 79.2568 14.1063 78.8741 14.5076C78.5008 14.8996 78.3141 15.4643 78.3141 16.2016C78.3141 16.9389 78.4961 17.5083 78.8601 17.9096C79.2334 18.3016 79.7001 18.4976 80.2601 18.4976ZM90.0418 12.2116C90.9658 12.2116 91.7125 12.5056 92.2818 13.0936C92.8512 13.6723 93.1358 14.4843 93.1358 15.5296V20.0796H91.1758V15.7956C91.1758 15.1796 91.0218 14.7083 90.7138 14.3816C90.4058 14.0456 89.9858 13.8776 89.4538 13.8776C88.9125 13.8776 88.4832 14.0456 88.1658 14.3816C87.8578 14.7083 87.7038 15.1796 87.7038 15.7956V20.0796H85.7438V12.3236H87.7038V13.2896C87.9652 12.9536 88.2965 12.6923 88.6978 12.5056C89.1085 12.3096 89.5565 12.2116 90.0418 12.2116ZM97.9677 20.2056C97.333 20.2056 96.7637 20.0936 96.2597 19.8696C95.7557 19.6363 95.3544 19.3236 95.0557 18.9316C94.7664 18.5396 94.6077 18.1056 94.5797 17.6296H96.5537C96.591 17.9283 96.7357 18.1756 96.9877 18.3716C97.249 18.5676 97.571 18.6656 97.9537 18.6656C98.327 18.6656 98.6164 18.5909 98.8217 18.4416C99.0364 18.2923 99.1437 18.1009 99.1437 17.8676C99.1437 17.6156 99.013 17.4289 98.7517 17.3076C98.4997 17.1769 98.0937 17.0369 97.5337 16.8876C96.955 16.7476 96.479 16.6029 96.1057 16.4536C95.7417 16.3043 95.4244 16.0756 95.1537 15.7676C94.8924 15.4596 94.7617 15.0443 94.7617 14.5216C94.7617 14.0923 94.883 13.7003 95.1257 13.3456C95.3777 12.9909 95.7324 12.7109 96.1897 12.5056C96.6564 12.3003 97.2024 12.1976 97.8277 12.1976C98.7517 12.1976 99.489 12.4309 100.04 12.8976C100.59 13.3549 100.894 13.9756 100.95 14.7596H99.0737C99.0457 14.4516 98.915 14.2089 98.6817 14.0316C98.4577 13.8449 98.1544 13.7516 97.7717 13.7516C97.417 13.7516 97.1417 13.8169 96.9457 13.9476C96.759 14.0783 96.6657 14.2603 96.6657 14.4936C96.6657 14.7549 96.7964 14.9556 97.0577 15.0956C97.319 15.2263 97.725 15.3616 98.2757 15.5016C98.8357 15.6416 99.2977 15.7863 99.6617 15.9356C100.026 16.0849 100.338 16.3183 100.6 16.6356C100.87 16.9436 101.01 17.3543 101.02 17.8676C101.02 18.3156 100.894 18.7169 100.642 19.0716C100.399 19.4263 100.044 19.7063 99.5777 19.9116C99.1204 20.1076 98.5837 20.2056 97.9677 20.2056ZM109.381 10.3076C110.407 10.3076 111.308 10.5083 112.083 10.9096C112.867 11.3109 113.469 11.8849 113.889 12.6316C114.318 13.3689 114.533 14.2276 114.533 15.2076C114.533 16.1876 114.318 17.0463 113.889 17.7836C113.469 18.5116 112.867 19.0763 112.083 19.4776C111.308 19.8789 110.407 20.0796 109.381 20.0796H105.965V10.3076H109.381ZM109.311 18.4136C110.337 18.4136 111.131 18.1336 111.691 17.5736C112.251 17.0136 112.531 16.2249 112.531 15.2076C112.531 14.1903 112.251 13.3969 111.691 12.8276C111.131 12.2489 110.337 11.9596 109.311 11.9596H107.925V18.4136H109.311ZM123.322 12.3236V20.0796H121.348V19.0996C121.096 19.4356 120.764 19.7016 120.354 19.8976C119.952 20.0843 119.514 20.1776 119.038 20.1776C118.431 20.1776 117.894 20.0516 117.428 19.7996C116.961 19.5383 116.592 19.1603 116.322 18.6656C116.06 18.1616 115.93 17.5643 115.93 16.8736V12.3236H117.89V16.5936C117.89 17.2096 118.044 17.6856 118.352 18.0216C118.66 18.3483 119.08 18.5116 119.612 18.5116C120.153 18.5116 120.578 18.3483 120.886 18.0216C121.194 17.6856 121.348 17.2096 121.348 16.5936V12.3236H123.322ZM132.466 16.0336C132.466 16.3136 132.447 16.5656 132.41 16.7896H126.74C126.786 17.3496 126.982 17.7883 127.328 18.1056C127.673 18.4229 128.098 18.5816 128.602 18.5816C129.33 18.5816 129.848 18.2689 130.156 17.6436H132.27C132.046 18.3903 131.616 19.0063 130.982 19.4916C130.347 19.9676 129.568 20.2056 128.644 20.2056C127.897 20.2056 127.225 20.0423 126.628 19.7156C126.04 19.3796 125.578 18.9083 125.242 18.3016C124.915 17.6949 124.752 16.9949 124.752 16.2016C124.752 15.3989 124.915 14.6943 125.242 14.0876C125.568 13.4809 126.026 13.0143 126.614 12.6876C127.202 12.3609 127.878 12.1976 128.644 12.1976C129.381 12.1976 130.039 12.3563 130.618 12.6736C131.206 12.9909 131.658 13.4436 131.976 14.0316C132.302 14.6103 132.466 15.2776 132.466 16.0336ZM130.436 15.4736C130.426 14.9696 130.244 14.5683 129.89 14.2696C129.535 13.9616 129.101 13.8076 128.588 13.8076C128.102 13.8076 127.692 13.9569 127.356 14.2556C127.029 14.5449 126.828 14.9509 126.754 15.4736H130.436ZM136.43 10.1396L136.206 16.9016H134.554L134.316 10.1396H136.43ZM135.422 20.1776C135.068 20.1776 134.774 20.0703 134.54 19.8556C134.316 19.6316 134.204 19.3563 134.204 19.0296C134.204 18.7029 134.316 18.4323 134.54 18.2176C134.774 17.9936 135.068 17.8816 135.422 17.8816C135.768 17.8816 136.052 17.9936 136.276 18.2176C136.5 18.4323 136.612 18.7029 136.612 19.0296C136.612 19.3563 136.5 19.6316 136.276 19.8556C136.052 20.0703 135.768 20.1776 135.422 20.1776Z" fill="#354563"/>
</svg>
