<svg width="226" height="207" viewBox="0 0 226 207" fill="none" xmlns="http://www.w3.org/2000/svg">
<rect x="2.98926" y="2.07959" width="220.242" height="201.961" rx="8" fill="#354563" stroke="#354563" stroke-width="4"/>
<rect x="30.7842" y="66.0781" width="164.652" height="33.5326" rx="16.7663" fill="#FF7347"/>
<rect x="31.7842" y="147.353" width="162.652" height="31.5326" rx="15.7663" fill="#354563" stroke="#F8ECE0" stroke-width="2"/>
<rect x="30.7842" y="106.216" width="164.652" height="33.5326" rx="16.7663" fill="#B8E1D1"/>
<path d="M49.0699 77.2388V88.0117H46.9092V77.2388H49.0699ZM61.8234 79.3378C62.8729 79.3378 63.7166 79.6619 64.3546 80.3101C65.0028 80.9481 65.3269 81.8433 65.3269 82.9957V88.0117H63.1661V83.2889C63.1661 82.6201 62.9964 82.1108 62.6568 81.7609C62.3173 81.4008 61.8543 81.2208 61.2678 81.2208C60.6813 81.2208 60.2131 81.4008 59.8633 81.7609C59.5237 82.1108 59.3539 82.6201 59.3539 83.2889V88.0117H57.1932V83.2889C57.1932 82.6201 57.0234 82.1108 56.6839 81.7609C56.3443 81.4008 55.8813 81.2208 55.2948 81.2208C54.698 81.2208 54.2247 81.4008 53.8749 81.7609C53.5353 82.1108 53.3655 82.6201 53.3655 83.2889V88.0117H51.2048V79.4613H53.3655V80.4954C53.6434 80.1352 53.9983 79.8523 54.4305 79.6465C54.8729 79.4407 55.3565 79.3378 55.8813 79.3378C56.5501 79.3378 57.1469 79.4819 57.6716 79.77C58.1964 80.0478 58.6028 80.4491 58.8909 80.9738C59.1687 80.4799 59.57 80.0838 60.0948 79.7854C60.6298 79.487 61.206 79.3378 61.8234 79.3378ZM69.5381 80.696C69.8159 80.305 70.1966 79.9809 70.6802 79.7237C71.1741 79.4561 71.7349 79.3224 72.3625 79.3224C73.0931 79.3224 73.7516 79.5024 74.3381 79.8626C74.9349 80.2227 75.403 80.7372 75.7426 81.406C76.0924 82.0645 76.2673 82.831 76.2673 83.7056C76.2673 84.5802 76.0924 85.3571 75.7426 86.0362C75.403 86.705 74.9349 87.2246 74.3381 87.595C73.7516 87.9654 73.0931 88.1506 72.3625 88.1506C71.7349 88.1506 71.1793 88.022 70.6957 87.7648C70.2223 87.5075 69.8365 87.1834 69.5381 86.7924V92.0863H67.3773V79.4613H69.5381V80.696ZM74.0603 83.7056C74.0603 83.1912 73.9522 82.7487 73.7362 82.3783C73.5304 81.9976 73.2526 81.7095 72.9027 81.514C72.5632 81.3185 72.1928 81.2208 71.7915 81.2208C71.4005 81.2208 71.0301 81.3236 70.6802 81.5294C70.3407 81.7249 70.0629 82.013 69.8468 82.3937C69.641 82.7744 69.5381 83.222 69.5381 83.7365C69.5381 84.251 69.641 84.6986 69.8468 85.0793C70.0629 85.46 70.3407 85.7532 70.6802 85.959C71.0301 86.1545 71.4005 86.2522 71.7915 86.2522C72.1928 86.2522 72.5632 86.1493 72.9027 85.9436C73.2526 85.7378 73.5304 85.4445 73.7362 85.0638C73.9522 84.6831 74.0603 84.2304 74.0603 83.7056ZM81.6343 88.1506C80.8111 88.1506 80.0703 87.9706 79.4118 87.6104C78.7533 87.24 78.2336 86.7204 77.8529 86.0516C77.4825 85.3828 77.2973 84.6111 77.2973 83.7365C77.2973 82.8619 77.4877 82.0902 77.8684 81.4214C78.2594 80.7526 78.7893 80.2381 79.4581 79.878C80.1269 79.5076 80.8729 79.3224 81.696 79.3224C82.5192 79.3224 83.2651 79.5076 83.9339 79.878C84.6027 80.2381 85.1275 80.7526 85.5082 81.4214C85.8992 82.0902 86.0947 82.8619 86.0947 83.7365C86.0947 84.6111 85.8941 85.3828 85.4928 86.0516C85.1018 86.7204 84.5667 87.24 83.8876 87.6104C83.2188 87.9706 82.4677 88.1506 81.6343 88.1506ZM81.6343 86.2677C82.0253 86.2677 82.3905 86.1751 82.7301 85.9899C83.0799 85.7944 83.3577 85.5063 83.5635 85.1256C83.7693 84.7449 83.8722 84.2818 83.8722 83.7365C83.8722 82.9236 83.6561 82.3011 83.224 81.869C82.8021 81.4265 82.2825 81.2053 81.6651 81.2053C81.0478 81.2053 80.5282 81.4265 80.1063 81.869C79.6947 82.3011 79.4889 82.9236 79.4889 83.7365C79.4889 84.5494 79.6896 85.177 80.0909 85.6194C80.5024 86.0516 81.0169 86.2677 81.6343 86.2677ZM89.8405 80.7886C90.1183 80.3359 90.4784 79.9809 90.9208 79.7237C91.3736 79.4664 91.888 79.3378 92.4642 79.3378V81.6066H91.8932C91.2141 81.6066 90.6996 81.7661 90.3498 82.0851C90.0102 82.404 89.8405 82.9597 89.8405 83.7519V88.0117H87.6797V79.4613H89.8405V80.7886ZM96.4354 81.2362V85.3725C96.4354 85.6606 96.5023 85.8715 96.636 86.0053C96.7801 86.1288 97.0167 86.1905 97.346 86.1905H98.3492V88.0117H96.991C95.1698 88.0117 94.2592 87.1268 94.2592 85.3571V81.2362H93.2405V79.4613H94.2592V77.3468H96.4354V79.4613H98.3492V81.2362H96.4354ZM99.3477 83.7056C99.3477 82.8413 99.5175 82.0748 99.857 81.406C100.207 80.7372 100.675 80.2227 101.262 79.8626C101.858 79.5024 102.522 79.3224 103.252 79.3224C103.89 79.3224 104.446 79.451 104.919 79.7082C105.403 79.9655 105.789 80.2896 106.077 80.6806V79.4613H108.253V88.0117H106.077V86.7616C105.799 87.1628 105.413 87.4973 104.919 87.7648C104.436 88.022 103.875 88.1506 103.237 88.1506C102.517 88.1506 101.858 87.9654 101.262 87.595C100.675 87.2246 100.207 86.705 99.857 86.0362C99.5175 85.3571 99.3477 84.5802 99.3477 83.7056ZM106.077 83.7365C106.077 83.2117 105.974 82.7642 105.768 82.3937C105.562 82.013 105.285 81.7249 104.935 81.5294C104.585 81.3236 104.209 81.2208 103.808 81.2208C103.407 81.2208 103.036 81.3185 102.697 81.514C102.357 81.7095 102.08 81.9976 101.863 82.3783C101.658 82.7487 101.555 83.1912 101.555 83.7056C101.555 84.2201 101.658 84.6728 101.863 85.0638C102.08 85.4445 102.357 85.7378 102.697 85.9436C103.047 86.1493 103.417 86.2522 103.808 86.2522C104.209 86.2522 104.585 86.1545 104.935 85.959C105.285 85.7532 105.562 85.4651 105.768 85.0947C105.974 84.714 106.077 84.2613 106.077 83.7365ZM115.102 79.3378C116.12 79.3378 116.944 79.6619 117.571 80.3101C118.199 80.9481 118.513 81.8433 118.513 82.9957V88.0117H116.352V83.2889C116.352 82.6098 116.182 82.0902 115.843 81.7301C115.503 81.3597 115.04 81.1745 114.453 81.1745C113.857 81.1745 113.383 81.3597 113.034 81.7301C112.694 82.0902 112.524 82.6098 112.524 83.2889V88.0117H110.363V79.4613H112.524V80.5262C112.812 80.1558 113.178 79.8677 113.62 79.6619C114.073 79.4458 114.567 79.3378 115.102 79.3378ZM123.083 81.2362V85.3725C123.083 85.6606 123.15 85.8715 123.284 86.0053C123.428 86.1288 123.665 86.1905 123.994 86.1905H124.997V88.0117H123.639C121.818 88.0117 120.907 87.1268 120.907 85.3571V81.2362H119.888V79.4613H120.907V77.3468H123.083V79.4613H124.997V81.2362H123.083ZM133.995 77.2388C135.126 77.2388 136.119 77.46 136.973 77.9024C137.838 78.3449 138.501 78.9777 138.964 79.8008C139.438 80.6137 139.674 81.5603 139.674 82.6407C139.674 83.7211 139.438 84.6677 138.964 85.4805C138.501 86.2831 137.838 86.9056 136.973 87.3481C136.119 87.7905 135.126 88.0117 133.995 88.0117H130.229V77.2388H133.995ZM133.917 86.1751C135.049 86.1751 135.924 85.8664 136.541 85.249C137.159 84.6317 137.467 83.7622 137.467 82.6407C137.467 81.5191 137.159 80.6445 136.541 80.0169C135.924 79.379 135.049 79.06 133.917 79.06H132.39V86.1751H133.917ZM140.736 83.7056C140.736 82.8413 140.906 82.0748 141.245 81.406C141.595 80.7372 142.064 80.2227 142.65 79.8626C143.247 79.5024 143.91 79.3224 144.641 79.3224C145.279 79.3224 145.835 79.451 146.308 79.7082C146.791 79.9655 147.177 80.2896 147.465 80.6806V79.4613H149.642V88.0117H147.465V86.7616C147.188 87.1628 146.802 87.4973 146.308 87.7648C145.824 88.022 145.263 88.1506 144.626 88.1506C143.905 88.1506 143.247 87.9654 142.65 87.595C142.064 87.2246 141.595 86.705 141.245 86.0362C140.906 85.3571 140.736 84.5802 140.736 83.7056ZM147.465 83.7365C147.465 83.2117 147.363 82.7642 147.157 82.3937C146.951 82.013 146.673 81.7249 146.323 81.5294C145.973 81.3236 145.598 81.2208 145.197 81.2208C144.795 81.2208 144.425 81.3185 144.085 81.514C143.746 81.7095 143.468 81.9976 143.252 82.3783C143.046 82.7487 142.943 83.1912 142.943 83.7056C142.943 84.2201 143.046 84.6728 143.252 85.0638C143.468 85.4445 143.746 85.7378 144.085 85.9436C144.435 86.1493 144.806 86.2522 145.197 86.2522C145.598 86.2522 145.973 86.1545 146.323 85.959C146.673 85.7532 146.951 85.4651 147.157 85.0947C147.363 84.714 147.465 84.2613 147.465 83.7365ZM154.268 81.2362V85.3725C154.268 85.6606 154.335 85.8715 154.468 86.0053C154.612 86.1288 154.849 86.1905 155.178 86.1905H156.182V88.0117H154.823C153.002 88.0117 152.092 87.1268 152.092 85.3571V81.2362H151.073V79.4613H152.092V77.3468H154.268V79.4613H156.182V81.2362H154.268ZM165.684 83.5513C165.684 83.86 165.664 84.1378 165.622 84.3847H159.372C159.423 85.0021 159.639 85.4857 160.02 85.8355C160.401 86.1854 160.869 86.3603 161.424 86.3603C162.227 86.3603 162.798 86.0156 163.138 85.3262H165.468C165.221 86.1493 164.748 86.8284 164.048 87.3635C163.348 87.8882 162.489 88.1506 161.471 88.1506C160.648 88.1506 159.907 87.9706 159.248 87.6104C158.6 87.24 158.091 86.7204 157.72 86.0516C157.36 85.3828 157.18 84.6111 157.18 83.7365C157.18 82.8516 157.36 82.0748 157.72 81.406C158.08 80.7372 158.585 80.2227 159.233 79.8626C159.881 79.5024 160.627 79.3224 161.471 79.3224C162.284 79.3224 163.009 79.4973 163.647 79.8471C164.295 80.197 164.794 80.696 165.144 81.3442C165.504 81.9822 165.684 82.7179 165.684 83.5513ZM163.446 82.9339C163.436 82.3783 163.235 81.9359 162.844 81.6066C162.453 81.2671 161.975 81.0973 161.409 81.0973C160.874 81.0973 160.421 81.2619 160.051 81.5912C159.691 81.9101 159.469 82.3577 159.387 82.9339H163.446ZM170.533 88.1506C169.834 88.1506 169.206 88.0272 168.65 87.7802C168.095 87.523 167.652 87.1783 167.323 86.7461C167.004 86.314 166.829 85.8355 166.798 85.3108H168.975C169.016 85.64 169.175 85.9127 169.453 86.1288C169.741 86.3448 170.096 86.4529 170.518 86.4529C170.929 86.4529 171.248 86.3706 171.475 86.2059C171.711 86.0413 171.83 85.8304 171.83 85.5731C171.83 85.2953 171.686 85.0895 171.398 84.9558C171.12 84.8117 170.672 84.6574 170.055 84.4928C169.417 84.3384 168.892 84.1789 168.481 84.0143C168.079 83.8497 167.73 83.5976 167.431 83.258C167.143 82.9185 166.999 82.4606 166.999 81.8844C166.999 81.4111 167.133 80.979 167.4 80.588C167.678 80.197 168.069 79.8883 168.573 79.6619C169.088 79.4356 169.69 79.3224 170.379 79.3224C171.398 79.3224 172.211 79.5796 172.818 80.0941C173.425 80.5982 173.759 81.2825 173.821 82.1468H171.753C171.722 81.8072 171.578 81.5397 171.32 81.3442C171.074 81.1384 170.739 81.0355 170.317 81.0355C169.926 81.0355 169.623 81.1076 169.407 81.2516C169.201 81.3957 169.098 81.5963 169.098 81.8535C169.098 82.1416 169.242 82.3629 169.53 82.5172C169.818 82.6613 170.266 82.8105 170.873 82.9648C171.49 83.1191 172 83.2786 172.401 83.4433C172.802 83.6079 173.147 83.8651 173.435 84.215C173.733 84.5545 173.888 85.0072 173.898 85.5731C173.898 86.067 173.759 86.5095 173.481 86.9005C173.214 87.2915 172.823 87.6001 172.308 87.8265C171.804 88.0426 171.212 88.1506 170.533 88.1506ZM178.465 77.0536L178.218 84.5082H176.397L176.135 77.0536H178.465ZM177.354 88.1198C176.963 88.1198 176.639 88.0014 176.382 87.7648C176.135 87.5178 176.011 87.2143 176.011 86.8542C176.011 86.494 176.135 86.1956 176.382 85.959C176.639 85.7121 176.963 85.5886 177.354 85.5886C177.735 85.5886 178.049 85.7121 178.295 85.959C178.542 86.1956 178.666 86.494 178.666 86.8542C178.666 87.2143 178.542 87.5178 178.295 87.7648C178.049 88.0014 177.735 88.1198 177.354 88.1198Z" fill="#354563"/>
<path d="M50.6288 128.256C49.8777 128.256 49.1986 128.127 48.5915 127.87C47.9947 127.613 47.5214 127.242 47.1716 126.759C46.8217 126.275 46.6417 125.704 46.6314 125.045H48.9465C48.9773 125.488 49.1317 125.838 49.4095 126.095C49.6976 126.352 50.0886 126.481 50.5825 126.481C51.0867 126.481 51.4828 126.363 51.7709 126.126C52.059 125.879 52.2031 125.56 52.2031 125.169C52.2031 124.85 52.1053 124.588 51.9098 124.382C51.7143 124.176 51.4674 124.017 51.169 123.903C50.8809 123.78 50.4796 123.646 49.9651 123.502C49.2654 123.296 48.6944 123.096 48.2519 122.9C47.8198 122.694 47.4442 122.391 47.1253 121.99C46.8166 121.578 46.6622 121.033 46.6622 120.354C46.6622 119.716 46.8217 119.16 47.1407 118.687C47.4597 118.213 47.9073 117.853 48.4835 117.606C49.0597 117.349 49.7182 117.22 50.459 117.22C51.5703 117.22 52.4706 117.493 53.16 118.038C53.8596 118.573 54.2455 119.325 54.3175 120.292H51.9407C51.9201 119.921 51.7606 119.618 51.4622 119.381C51.1741 119.134 50.7883 119.011 50.3047 119.011C49.8828 119.011 49.5433 119.119 49.286 119.335C49.0391 119.551 48.9156 119.865 48.9156 120.276C48.9156 120.564 49.0082 120.806 49.1934 121.002C49.3889 121.187 49.6256 121.341 49.9034 121.465C50.1915 121.578 50.5928 121.712 51.1072 121.866C51.8069 122.072 52.378 122.278 52.8204 122.483C53.2629 122.689 53.6436 122.998 53.9625 123.409C54.2815 123.821 54.441 124.361 54.441 125.03C54.441 125.606 54.2918 126.141 53.9934 126.635C53.695 127.129 53.2577 127.525 52.6815 127.824C52.1053 128.112 51.4211 128.256 50.6288 128.256ZM58.83 121.372V125.508C58.83 125.797 58.8969 126.008 59.0307 126.141C59.1747 126.265 59.4114 126.326 59.7406 126.326H60.7439V128.148H59.3857C57.5644 128.148 56.6538 127.263 56.6538 125.493V121.372H55.6352V119.597H56.6538V117.483H58.83V119.597H60.7439V121.372H58.83ZM70.37 119.597V128.148H68.1938V127.067C67.916 127.438 67.5507 127.731 67.098 127.947C66.6555 128.153 66.1719 128.256 65.6472 128.256C64.9784 128.256 64.3867 128.117 63.8723 127.839C63.3578 127.551 62.9514 127.134 62.653 126.589C62.3649 126.033 62.2208 125.375 62.2208 124.613V119.597H64.3816V124.305C64.3816 124.984 64.5513 125.508 64.8909 125.879C65.2304 126.239 65.6935 126.419 66.28 126.419C66.8767 126.419 67.3449 126.239 67.6845 125.879C68.024 125.508 68.1938 124.984 68.1938 124.305V119.597H70.37ZM71.9463 123.842C71.9463 122.977 72.1161 122.211 72.4556 121.542C72.8055 120.873 73.2788 120.359 73.8755 119.999C74.4723 119.638 75.136 119.458 75.8665 119.458C76.4222 119.458 76.9521 119.582 77.4562 119.829C77.9604 120.065 78.3617 120.384 78.6601 120.786V116.727H80.8517V128.148H78.6601V126.882C78.3926 127.304 78.017 127.644 77.5334 127.901C77.0498 128.158 76.489 128.287 75.8511 128.287C75.1308 128.287 74.4723 128.101 73.8755 127.731C73.2788 127.361 72.8055 126.841 72.4556 126.172C72.1161 125.493 71.9463 124.716 71.9463 123.842ZM78.6755 123.872C78.6755 123.348 78.5726 122.9 78.3668 122.53C78.1611 122.149 77.8832 121.861 77.5334 121.665C77.1836 121.46 76.808 121.357 76.4067 121.357C76.0054 121.357 75.635 121.454 75.2955 121.65C74.9559 121.845 74.6781 122.134 74.462 122.514C74.2562 122.885 74.1534 123.327 74.1534 123.842C74.1534 124.356 74.2562 124.809 74.462 125.2C74.6781 125.581 74.9559 125.874 75.2955 126.08C75.6453 126.285 76.0157 126.388 76.4067 126.388C76.808 126.388 77.1836 126.29 77.5334 126.095C77.8832 125.889 78.1611 125.601 78.3668 125.231C78.5726 124.85 78.6755 124.397 78.6755 123.872ZM84.0579 118.579C83.6772 118.579 83.3582 118.46 83.101 118.224C82.854 117.977 82.7306 117.673 82.7306 117.313C82.7306 116.953 82.854 116.655 83.101 116.418C83.3582 116.171 83.6772 116.047 84.0579 116.047C84.4386 116.047 84.7524 116.171 84.9994 116.418C85.2566 116.655 85.3852 116.953 85.3852 117.313C85.3852 117.673 85.2566 117.977 84.9994 118.224C84.7524 118.46 84.4386 118.579 84.0579 118.579ZM85.1228 119.597V128.148H82.9621V119.597H85.1228ZM91.0544 128.287C90.2313 128.287 89.4905 128.107 88.8319 127.746C88.1734 127.376 87.6538 126.856 87.2731 126.188C86.9027 125.519 86.7175 124.747 86.7175 123.872C86.7175 122.998 86.9078 122.226 87.2885 121.557C87.6795 120.889 88.2094 120.374 88.8782 120.014C89.5471 119.644 90.293 119.458 91.1162 119.458C91.9393 119.458 92.6853 119.644 93.3541 120.014C94.0229 120.374 94.5477 120.889 94.9284 121.557C95.3194 122.226 95.5149 122.998 95.5149 123.872C95.5149 124.747 95.3142 125.519 94.9129 126.188C94.522 126.856 93.9869 127.376 93.3078 127.746C92.639 128.107 91.8879 128.287 91.0544 128.287ZM91.0544 126.404C91.4454 126.404 91.8107 126.311 92.1503 126.126C92.5001 125.93 92.7779 125.642 92.9837 125.262C93.1895 124.881 93.2924 124.418 93.2924 123.872C93.2924 123.06 93.0763 122.437 92.6441 122.005C92.2223 121.563 91.7027 121.341 91.0853 121.341C90.468 121.341 89.9483 121.563 89.5265 122.005C89.1149 122.437 88.9091 123.06 88.9091 123.872C88.9091 124.685 89.1098 125.313 89.511 125.755C89.9226 126.188 90.4371 126.404 91.0544 126.404ZM109.714 117.375V128.148H107.553V123.564H102.938V128.148H100.778V117.375H102.938V121.804H107.553V117.375H109.714ZM115.637 128.287C114.814 128.287 114.073 128.107 113.415 127.746C112.756 127.376 112.237 126.856 111.856 126.188C111.486 125.519 111.3 124.747 111.3 123.872C111.3 122.998 111.491 122.226 111.871 121.557C112.262 120.889 112.792 120.374 113.461 120.014C114.13 119.644 114.876 119.458 115.699 119.458C116.522 119.458 117.268 119.644 117.937 120.014C118.606 120.374 119.131 120.889 119.511 121.557C119.902 122.226 120.098 122.998 120.098 123.872C120.098 124.747 119.897 125.519 119.496 126.188C119.105 126.856 118.57 127.376 117.891 127.746C117.222 128.107 116.471 128.287 115.637 128.287ZM115.637 126.404C116.028 126.404 116.394 126.311 116.733 126.126C117.083 125.93 117.361 125.642 117.567 125.262C117.772 124.881 117.875 124.418 117.875 123.872C117.875 123.06 117.659 122.437 117.227 122.005C116.805 121.563 116.286 121.341 115.668 121.341C115.051 121.341 114.531 121.563 114.109 122.005C113.698 122.437 113.492 123.06 113.492 123.872C113.492 124.685 113.693 125.313 114.094 125.755C114.506 126.188 115.02 126.404 115.637 126.404ZM129.755 119.597V128.148H127.579V127.067C127.301 127.438 126.935 127.731 126.483 127.947C126.04 128.153 125.557 128.256 125.032 128.256C124.363 128.256 123.772 128.117 123.257 127.839C122.743 127.551 122.336 127.134 122.038 126.589C121.75 126.033 121.606 125.375 121.606 124.613V119.597H123.766V124.305C123.766 124.984 123.936 125.508 124.276 125.879C124.615 126.239 125.078 126.419 125.665 126.419C126.262 126.419 126.73 126.239 127.069 125.879C127.409 125.508 127.579 124.984 127.579 124.305V119.597H129.755ZM134.047 120.925C134.325 120.472 134.685 120.117 135.128 119.86C135.581 119.602 136.095 119.474 136.671 119.474V121.743H136.1C135.421 121.743 134.907 121.902 134.557 122.221C134.217 122.54 134.047 123.096 134.047 123.888V128.148H131.887V119.597H134.047V120.925ZM141.399 128.287C140.699 128.287 140.071 128.163 139.516 127.916C138.96 127.659 138.518 127.314 138.188 126.882C137.869 126.45 137.694 125.972 137.664 125.447H139.84C139.881 125.776 140.04 126.049 140.318 126.265C140.606 126.481 140.961 126.589 141.383 126.589C141.795 126.589 142.114 126.507 142.34 126.342C142.577 126.177 142.695 125.966 142.695 125.709C142.695 125.431 142.551 125.226 142.263 125.092C141.985 124.948 141.538 124.793 140.92 124.629C140.282 124.474 139.757 124.315 139.346 124.15C138.945 123.986 138.595 123.734 138.296 123.394C138.008 123.054 137.864 122.597 137.864 122.02C137.864 121.547 137.998 121.115 138.266 120.724C138.543 120.333 138.934 120.024 139.439 119.798C139.953 119.572 140.555 119.458 141.244 119.458C142.263 119.458 143.076 119.716 143.683 120.23C144.29 120.734 144.624 121.418 144.686 122.283H142.618C142.587 121.943 142.443 121.676 142.186 121.48C141.939 121.274 141.604 121.172 141.183 121.172C140.792 121.172 140.488 121.244 140.272 121.388C140.066 121.532 139.963 121.732 139.963 121.99C139.963 122.278 140.107 122.499 140.395 122.653C140.684 122.797 141.131 122.946 141.738 123.101C142.356 123.255 142.865 123.415 143.266 123.579C143.667 123.744 144.012 124.001 144.3 124.351C144.599 124.69 144.753 125.143 144.763 125.709C144.763 126.203 144.624 126.645 144.347 127.036C144.079 127.427 143.688 127.736 143.174 127.962C142.669 128.179 142.078 128.287 141.399 128.287Z" fill="#354563"/>
<path d="M61.3091 157.77L58.2995 168.543H55.7529L53.731 160.872L51.6166 168.543L49.0854 168.558L46.1838 157.77H48.4989L50.3973 166.135L52.5889 157.77H54.9966L57.0648 166.089L58.9786 157.77H61.3091ZM66.5168 168.682C65.6936 168.682 64.9528 168.502 64.2943 168.142C63.6358 167.771 63.1161 167.252 62.7354 166.583C62.365 165.914 62.1798 165.142 62.1798 164.268C62.1798 163.393 62.3702 162.621 62.7509 161.953C63.1419 161.284 63.6718 160.769 64.3406 160.409C65.0094 160.039 65.7554 159.854 66.5785 159.854C67.4017 159.854 68.1476 160.039 68.8164 160.409C69.4853 160.769 70.01 161.284 70.3907 161.953C70.7817 162.621 70.9772 163.393 70.9772 164.268C70.9772 165.142 70.7766 165.914 70.3753 166.583C69.9843 167.252 69.4492 167.771 68.7701 168.142C68.1013 168.502 67.3502 168.682 66.5168 168.682ZM66.5168 166.799C66.9078 166.799 67.273 166.706 67.6126 166.521C67.9624 166.326 68.2402 166.038 68.446 165.657C68.6518 165.276 68.7547 164.813 68.7547 164.268C68.7547 163.455 68.5386 162.832 68.1065 162.4C67.6846 161.958 67.165 161.737 66.5476 161.737C65.9303 161.737 65.4107 161.958 64.9888 162.4C64.5772 162.832 64.3714 163.455 64.3714 164.268C64.3714 165.081 64.5721 165.708 64.9734 166.151C65.3849 166.583 65.8994 166.799 66.5168 166.799ZM74.723 161.32C75.0008 160.867 75.3609 160.512 75.8033 160.255C76.2561 159.998 76.7705 159.869 77.3467 159.869V162.138H76.7757C76.0966 162.138 75.5821 162.297 75.2323 162.616C74.8927 162.935 74.723 163.491 74.723 164.283V168.543H72.5622V159.993H74.723V161.32ZM83.8645 168.543L80.9629 164.901V168.543H78.8021V157.122H80.9629V163.62L83.8336 159.993H86.6426L82.8767 164.283L86.6735 168.543H83.8645ZM91.0874 168.682C90.3877 168.682 89.76 168.558 89.2044 168.311C88.6488 168.054 88.2063 167.71 87.8771 167.277C87.5581 166.845 87.3832 166.367 87.3523 165.842H89.5285C89.5697 166.171 89.7292 166.444 90.007 166.66C90.2951 166.876 90.6501 166.984 91.0719 166.984C91.4835 166.984 91.8025 166.902 92.0288 166.737C92.2655 166.573 92.3838 166.362 92.3838 166.104C92.3838 165.827 92.2398 165.621 91.9517 165.487C91.6739 165.343 91.2263 165.189 90.6089 165.024C89.971 164.87 89.4462 164.71 89.0346 164.546C88.6334 164.381 88.2835 164.129 87.9851 163.789C87.697 163.45 87.553 162.992 87.553 162.416C87.553 161.942 87.6867 161.51 87.9543 161.119C88.2321 160.728 88.6231 160.42 89.1272 160.193C89.6417 159.967 90.2436 159.854 90.933 159.854C91.9517 159.854 92.7645 160.111 93.3716 160.625C93.9787 161.129 94.3131 161.814 94.3748 162.678H92.3066C92.2758 162.338 92.1317 162.071 91.8745 161.875C91.6276 161.67 91.2931 161.567 90.8713 161.567C90.4803 161.567 90.1768 161.639 89.9607 161.783C89.7549 161.927 89.652 162.128 89.652 162.385C89.652 162.673 89.796 162.894 90.0842 163.048C90.3723 163.193 90.8198 163.342 91.4269 163.496C92.0443 163.65 92.5536 163.81 92.9549 163.975C93.3562 164.139 93.7009 164.396 93.989 164.746C94.2873 165.086 94.4417 165.538 94.452 166.104C94.452 166.598 94.3131 167.041 94.0353 167.432C93.7677 167.823 93.3767 168.131 92.8623 168.358C92.3581 168.574 91.7665 168.682 91.0874 168.682ZM101.041 159.869C101.689 159.869 102.266 160.013 102.77 160.301C103.274 160.579 103.665 160.996 103.943 161.551C104.231 162.097 104.375 162.755 104.375 163.527V168.543H102.214V163.82C102.214 163.141 102.044 162.621 101.705 162.261C101.365 161.891 100.902 161.706 100.316 161.706C99.7189 161.706 99.2456 161.891 98.8958 162.261C98.5562 162.621 98.3864 163.141 98.3864 163.82V168.543H96.2257V157.122H98.3864V161.057C98.6643 160.687 99.0347 160.399 99.4977 160.193C99.9607 159.977 100.475 159.869 101.041 159.869ZM110.226 168.682C109.403 168.682 108.662 168.502 108.004 168.142C107.345 167.771 106.826 167.252 106.445 166.583C106.075 165.914 105.889 165.142 105.889 164.268C105.889 163.393 106.08 162.621 106.46 161.953C106.851 161.284 107.381 160.769 108.05 160.409C108.719 160.039 109.465 159.854 110.288 159.854C111.111 159.854 111.857 160.039 112.526 160.409C113.195 160.769 113.72 161.284 114.1 161.953C114.491 162.621 114.687 163.393 114.687 164.268C114.687 165.142 114.486 165.914 114.085 166.583C113.694 167.252 113.159 167.771 112.48 168.142C111.811 168.502 111.06 168.682 110.226 168.682ZM110.226 166.799C110.617 166.799 110.983 166.706 111.322 166.521C111.672 166.326 111.95 166.038 112.156 165.657C112.361 165.276 112.464 164.813 112.464 164.268C112.464 163.455 112.248 162.832 111.816 162.4C111.394 161.958 110.875 161.737 110.257 161.737C109.64 161.737 109.12 161.958 108.698 162.4C108.287 162.832 108.081 163.455 108.081 164.268C108.081 165.081 108.282 165.708 108.683 166.151C109.095 166.583 109.609 166.799 110.226 166.799ZM118.433 161.227C118.71 160.836 119.091 160.512 119.575 160.255C120.069 159.987 120.629 159.854 121.257 159.854C121.988 159.854 122.646 160.034 123.233 160.394C123.829 160.754 124.298 161.268 124.637 161.937C124.987 162.596 125.162 163.362 125.162 164.237C125.162 165.111 124.987 165.888 124.637 166.567C124.298 167.236 123.829 167.756 123.233 168.126C122.646 168.497 121.988 168.682 121.257 168.682C120.629 168.682 120.074 168.553 119.59 168.296C119.117 168.039 118.731 167.715 118.433 167.324V172.618H116.272V159.993H118.433V161.227ZM122.955 164.237C122.955 163.722 122.847 163.28 122.631 162.91C122.425 162.529 122.147 162.241 121.797 162.045C121.458 161.85 121.087 161.752 120.686 161.752C120.295 161.752 119.925 161.855 119.575 162.061C119.235 162.256 118.957 162.544 118.741 162.925C118.535 163.306 118.433 163.753 118.433 164.268C118.433 164.782 118.535 165.23 118.741 165.611C118.957 165.991 119.235 166.284 119.575 166.49C119.925 166.686 120.295 166.783 120.686 166.783C121.087 166.783 121.458 166.681 121.797 166.475C122.147 166.269 122.425 165.976 122.631 165.595C122.847 165.214 122.955 164.762 122.955 164.237Z" fill="#F8ECE0"/>
<path d="M73.1261 41.6983H78.6461V44.3623H69.7661V27.6103H73.1261V41.6983ZM93.1417 37.4263C93.1417 37.9063 93.1097 38.3383 93.0457 38.7223H83.3257C83.4057 39.6823 83.7417 40.4343 84.3337 40.9783C84.9257 41.5223 85.6537 41.7943 86.5177 41.7943C87.7657 41.7943 88.6537 41.2583 89.1817 40.1863H92.8057C92.4217 41.4663 91.6857 42.5223 90.5977 43.3543C89.5097 44.1703 88.1737 44.5783 86.5897 44.5783C85.3097 44.5783 84.1577 44.2983 83.1337 43.7383C82.1257 43.1623 81.3337 42.3543 80.7577 41.3143C80.1977 40.2743 79.9177 39.0743 79.9177 37.7143C79.9177 36.3383 80.1977 35.1303 80.7577 34.0903C81.3177 33.0503 82.1017 32.2503 83.1097 31.6903C84.1177 31.1303 85.2777 30.8503 86.5897 30.8503C87.8537 30.8503 88.9817 31.1223 89.9737 31.6663C90.9817 32.2103 91.7577 32.9863 92.3017 33.9943C92.8617 34.9863 93.1417 36.1303 93.1417 37.4263ZM89.6617 36.4663C89.6457 35.6023 89.3337 34.9143 88.7257 34.4023C88.1177 33.8743 87.3737 33.6103 86.4937 33.6103C85.6617 33.6103 84.9577 33.8663 84.3817 34.3783C83.8217 34.8743 83.4777 35.5703 83.3497 36.4663H89.6617ZM100.802 30.8503C101.794 30.8503 102.666 31.0503 103.418 31.4503C104.17 31.8343 104.762 32.3383 105.194 32.9623V31.0663H108.578V44.4583C108.578 45.6903 108.33 46.7863 107.834 47.7463C107.338 48.7223 106.594 49.4903 105.602 50.0503C104.61 50.6263 103.41 50.9143 102.002 50.9143C100.114 50.9143 98.5622 50.4743 97.3462 49.5943C96.1462 48.7143 95.4662 47.5143 95.3062 45.9943H98.6422C98.8182 46.6023 99.1942 47.0823 99.7702 47.4343C100.362 47.8023 101.074 47.9863 101.906 47.9863C102.882 47.9863 103.674 47.6903 104.282 47.0983C104.89 46.5223 105.194 45.6423 105.194 44.4583V42.3943C104.762 43.0183 104.162 43.5383 103.394 43.9543C102.642 44.3703 101.778 44.5783 100.802 44.5783C99.6822 44.5783 98.6582 44.2903 97.7302 43.7143C96.8022 43.1383 96.0662 42.3303 95.5222 41.2903C94.9942 40.2343 94.7302 39.0263 94.7302 37.6663C94.7302 36.3223 94.9942 35.1303 95.5222 34.0903C96.0662 33.0503 96.7942 32.2503 97.7062 31.6903C98.6342 31.1303 99.6662 30.8503 100.802 30.8503ZM105.194 37.7143C105.194 36.8983 105.034 36.2023 104.714 35.6263C104.394 35.0343 103.962 34.5863 103.418 34.2823C102.874 33.9623 102.29 33.8023 101.666 33.8023C101.042 33.8023 100.466 33.9543 99.9382 34.2583C99.4102 34.5623 98.9782 35.0103 98.6422 35.6023C98.3222 36.1783 98.1622 36.8663 98.1622 37.6663C98.1622 38.4663 98.3222 39.1703 98.6422 39.7783C98.9782 40.3703 99.4102 40.8263 99.9382 41.1463C100.482 41.4663 101.058 41.6263 101.666 41.6263C102.29 41.6263 102.874 41.4743 103.418 41.1703C103.962 40.8503 104.394 40.4023 104.714 39.8263C105.034 39.2343 105.194 38.5303 105.194 37.7143ZM124.22 37.4263C124.22 37.9063 124.188 38.3383 124.124 38.7223H114.404C114.484 39.6823 114.82 40.4343 115.412 40.9783C116.004 41.5223 116.732 41.7943 117.596 41.7943C118.844 41.7943 119.732 41.2583 120.26 40.1863H123.884C123.5 41.4663 122.764 42.5223 121.676 43.3543C120.588 44.1703 119.252 44.5783 117.668 44.5783C116.388 44.5783 115.236 44.2983 114.212 43.7383C113.204 43.1623 112.412 42.3543 111.836 41.3143C111.276 40.2743 110.996 39.0743 110.996 37.7143C110.996 36.3383 111.276 35.1303 111.836 34.0903C112.396 33.0503 113.18 32.2503 114.188 31.6903C115.196 31.1303 116.356 30.8503 117.668 30.8503C118.932 30.8503 120.06 31.1223 121.052 31.6663C122.06 32.2103 122.836 32.9863 123.38 33.9943C123.94 34.9863 124.22 36.1303 124.22 37.4263ZM120.74 36.4663C120.724 35.6023 120.412 34.9143 119.804 34.4023C119.196 33.8743 118.452 33.6103 117.572 33.6103C116.74 33.6103 116.036 33.8663 115.46 34.3783C114.9 34.8743 114.556 35.5703 114.428 36.4663H120.74ZM134.04 30.8743C135.624 30.8743 136.904 31.3783 137.88 32.3863C138.856 33.3783 139.344 34.7703 139.344 36.5623V44.3623H135.984V37.0183C135.984 35.9623 135.72 35.1543 135.192 34.5943C134.664 34.0183 133.944 33.7303 133.032 33.7303C132.104 33.7303 131.368 34.0183 130.824 34.5943C130.296 35.1543 130.032 35.9623 130.032 37.0183V44.3623H126.672V31.0663H130.032V32.7223C130.48 32.1463 131.048 31.6983 131.736 31.3783C132.44 31.0423 133.208 30.8743 134.04 30.8743ZM141.676 37.6663C141.676 36.3223 141.94 35.1303 142.468 34.0903C143.012 33.0503 143.748 32.2503 144.676 31.6903C145.604 31.1303 146.636 30.8503 147.772 30.8503C148.636 30.8503 149.46 31.0423 150.244 31.4263C151.028 31.7943 151.652 32.2903 152.116 32.9143V26.6023H155.524V44.3623H152.116V42.3943C151.7 43.0503 151.116 43.5783 150.364 43.9783C149.612 44.3783 148.74 44.5783 147.748 44.5783C146.628 44.5783 145.604 44.2903 144.676 43.7143C143.748 43.1383 143.012 42.3303 142.468 41.2903C141.94 40.2343 141.676 39.0263 141.676 37.6663ZM152.14 37.7143C152.14 36.8983 151.98 36.2023 151.66 35.6263C151.34 35.0343 150.908 34.5863 150.364 34.2823C149.82 33.9623 149.236 33.8023 148.612 33.8023C147.988 33.8023 147.412 33.9543 146.884 34.2583C146.356 34.5623 145.924 35.0103 145.588 35.6023C145.268 36.1783 145.108 36.8663 145.108 37.6663C145.108 38.4663 145.268 39.1703 145.588 39.7783C145.924 40.3703 146.356 40.8263 146.884 41.1463C147.428 41.4663 148.004 41.6263 148.612 41.6263C149.236 41.6263 149.82 41.4743 150.364 41.1703C150.908 40.8503 151.34 40.4023 151.66 39.8263C151.98 39.2343 152.14 38.5303 152.14 37.7143Z" fill="#F8ECE0"/>
</svg>
