<svg width="151" height="36" viewBox="0 0 151 36" fill="none" xmlns="http://www.w3.org/2000/svg">
<g filter="url(#filter0_d_334_267)">
<rect x="4" width="142.859" height="28" rx="14" fill="#FF7347"/>
<path d="M28.4577 9.728L25.7277 19.5H23.4177L21.5837 12.542L19.6657 19.5L17.3697 19.514L14.7377 9.728H16.8377L18.5597 17.316L20.5477 9.728H22.7317L24.6077 17.274L26.3437 9.728H28.4577ZM33.1535 9.728C34.1802 9.728 35.0808 9.92867 35.8555 10.33C36.6395 10.7313 37.2415 11.3053 37.6615 12.052C38.0908 12.7893 38.3055 13.648 38.3055 14.628C38.3055 15.608 38.0908 16.4667 37.6615 17.204C37.2415 17.932 36.6395 18.4967 35.8555 18.898C35.0808 19.2993 34.1802 19.5 33.1535 19.5H29.7375V9.728H33.1535ZM33.0835 17.834C34.1102 17.834 34.9035 17.554 35.4635 16.994C36.0235 16.434 36.3035 15.6453 36.3035 14.628C36.3035 13.6107 36.0235 12.8173 35.4635 12.248C34.9035 11.6693 34.1102 11.38 33.0835 11.38H31.6975V17.834H33.0835ZM39.2966 14.6C39.2966 13.6387 39.5113 12.78 39.9406 12.024C40.3793 11.2587 40.972 10.666 41.7186 10.246C42.4746 9.81667 43.3193 9.602 44.2526 9.602C45.3446 9.602 46.3013 9.882 47.1226 10.442C47.944 11.002 48.518 11.7767 48.8446 12.766H46.5906C46.3666 12.2993 46.0493 11.9493 45.6386 11.716C45.2373 11.4827 44.7706 11.366 44.2386 11.366C43.6693 11.366 43.1606 11.5013 42.7126 11.772C42.274 12.0333 41.9286 12.4067 41.6766 12.892C41.434 13.3773 41.3126 13.9467 41.3126 14.6C41.3126 15.244 41.434 15.8133 41.6766 16.308C41.9286 16.7933 42.274 17.1713 42.7126 17.442C43.1606 17.7033 43.6693 17.834 44.2386 17.834C44.7706 17.834 45.2373 17.7173 45.6386 17.484C46.0493 17.2413 46.3666 16.8867 46.5906 16.42H48.8446C48.518 17.4187 47.944 18.198 47.1226 18.758C46.3106 19.3087 45.354 19.584 44.2526 19.584C43.3193 19.584 42.4746 19.374 41.7186 18.954C40.972 18.5247 40.3793 17.932 39.9406 17.176C39.5113 16.42 39.2966 15.5613 39.2966 14.6ZM57.2287 19.598C56.5473 19.598 55.9313 19.4813 55.3807 19.248C54.8393 19.0147 54.41 18.6787 54.0927 18.24C53.7753 17.8013 53.612 17.2833 53.6027 16.686H55.7027C55.7307 17.0873 55.8707 17.4047 56.1227 17.638C56.384 17.8713 56.7387 17.988 57.1867 17.988C57.644 17.988 58.0033 17.8807 58.2647 17.666C58.526 17.442 58.6567 17.1527 58.6567 16.798C58.6567 16.5087 58.568 16.2707 58.3907 16.084C58.2133 15.8973 57.9893 15.7527 57.7187 15.65C57.4573 15.538 57.0933 15.4167 56.6267 15.286C55.992 15.0993 55.474 14.9173 55.0727 14.74C54.6807 14.5533 54.34 14.278 54.0507 13.914C53.7707 13.5407 53.6307 13.046 53.6307 12.43C53.6307 11.8513 53.7753 11.3473 54.0647 10.918C54.354 10.4887 54.76 10.162 55.2827 9.938C55.8053 9.70467 56.4027 9.588 57.0747 9.588C58.0827 9.588 58.8993 9.83533 59.5247 10.33C60.1593 10.8153 60.5093 11.4967 60.5747 12.374H58.4187C58.4 12.038 58.2553 11.7627 57.9847 11.548C57.7233 11.324 57.3733 11.212 56.9347 11.212C56.552 11.212 56.244 11.31 56.0107 11.506C55.7867 11.702 55.6747 11.9867 55.6747 12.36C55.6747 12.6213 55.7587 12.8407 55.9267 13.018C56.104 13.186 56.3187 13.326 56.5707 13.438C56.832 13.5407 57.196 13.662 57.6627 13.802C58.2973 13.9887 58.8153 14.1753 59.2167 14.362C59.618 14.5487 59.9633 14.8287 60.2527 15.202C60.542 15.5753 60.6867 16.0653 60.6867 16.672C60.6867 17.1947 60.5513 17.68 60.2807 18.128C60.01 18.576 59.6133 18.9353 59.0907 19.206C58.568 19.4673 57.9473 19.598 57.2287 19.598ZM64.6679 13.354V17.106C64.6679 17.3673 64.7286 17.5587 64.8499 17.68C64.9806 17.792 65.1953 17.848 65.4939 17.848H66.4039V19.5H65.1719C63.5199 19.5 62.6939 18.6973 62.6939 17.092V13.354H61.7699V11.744H62.6939V9.826H64.6679V11.744H66.4039V13.354H64.6679ZM67.3097 15.594C67.3097 14.81 67.4637 14.1147 67.7717 13.508C68.089 12.9013 68.5137 12.4347 69.0457 12.108C69.587 11.7813 70.189 11.618 70.8517 11.618C71.4303 11.618 71.9343 11.7347 72.3637 11.968C72.8023 12.2013 73.1523 12.4953 73.4137 12.85V11.744H75.3877V19.5H73.4137V18.366C73.1617 18.73 72.8117 19.0333 72.3637 19.276C71.925 19.5093 71.4163 19.626 70.8377 19.626C70.1843 19.626 69.587 19.458 69.0457 19.122C68.5137 18.786 68.089 18.3147 67.7717 17.708C67.4637 17.092 67.3097 16.3873 67.3097 15.594ZM73.4137 15.622C73.4137 15.146 73.3203 14.74 73.1337 14.404C72.947 14.0587 72.695 13.7973 72.3777 13.62C72.0603 13.4333 71.7197 13.34 71.3557 13.34C70.9917 13.34 70.6557 13.4287 70.3477 13.606C70.0397 13.7833 69.7877 14.0447 69.5917 14.39C69.405 14.726 69.3117 15.1273 69.3117 15.594C69.3117 16.0607 69.405 16.4713 69.5917 16.826C69.7877 17.1713 70.0397 17.4373 70.3477 17.624C70.665 17.8107 71.001 17.904 71.3557 17.904C71.7197 17.904 72.0603 17.8153 72.3777 17.638C72.695 17.4513 72.947 17.19 73.1337 16.854C73.3203 16.5087 73.4137 16.098 73.4137 15.622ZM79.2619 12.948C79.5139 12.5373 79.8406 12.2153 80.2419 11.982C80.6526 11.7487 81.1193 11.632 81.6419 11.632V13.69H81.1239C80.5079 13.69 80.0413 13.8347 79.7239 14.124C79.4159 14.4133 79.2619 14.9173 79.2619 15.636V19.5H77.3019V11.744H79.2619V12.948ZM85.2441 13.354V17.106C85.2441 17.3673 85.3048 17.5587 85.4261 17.68C85.5568 17.792 85.7714 17.848 86.0701 17.848H86.9801V19.5H85.7481C84.0961 19.5 83.2701 18.6973 83.2701 17.092V13.354H82.3461V11.744H83.2701V9.826H85.2441V11.744H86.9801V13.354H85.2441ZM91.3578 19.626C90.7232 19.626 90.1538 19.514 89.6498 19.29C89.1458 19.0567 88.7445 18.744 88.4458 18.352C88.1565 17.96 87.9978 17.526 87.9698 17.05H89.9438C89.9812 17.3487 90.1258 17.596 90.3778 17.792C90.6392 17.988 90.9612 18.086 91.3438 18.086C91.7172 18.086 92.0065 18.0113 92.2118 17.862C92.4265 17.7127 92.5338 17.5213 92.5338 17.288C92.5338 17.036 92.4032 16.8493 92.1418 16.728C91.8898 16.5973 91.4838 16.4573 90.9238 16.308C90.3452 16.168 89.8692 16.0233 89.4958 15.874C89.1318 15.7247 88.8145 15.496 88.5438 15.188C88.2825 14.88 88.1518 14.4647 88.1518 13.942C88.1518 13.5127 88.2732 13.1207 88.5158 12.766C88.7678 12.4113 89.1225 12.1313 89.5798 11.926C90.0465 11.7207 90.5925 11.618 91.2178 11.618C92.1418 11.618 92.8792 11.8513 93.4298 12.318C93.9805 12.7753 94.2838 13.396 94.3398 14.18H92.4638C92.4358 13.872 92.3052 13.6293 92.0718 13.452C91.8478 13.2653 91.5445 13.172 91.1618 13.172C90.8072 13.172 90.5318 13.2373 90.3358 13.368C90.1492 13.4987 90.0558 13.6807 90.0558 13.914C90.0558 14.1753 90.1865 14.376 90.4478 14.516C90.7092 14.6467 91.1152 14.782 91.6658 14.922C92.2258 15.062 92.6878 15.2067 93.0518 15.356C93.4158 15.5053 93.7285 15.7387 93.9898 16.056C94.2605 16.364 94.4005 16.7747 94.4098 17.288C94.4098 17.736 94.2838 18.1373 94.0318 18.492C93.7892 18.8467 93.4345 19.1267 92.9678 19.332C92.5105 19.528 91.9738 19.626 91.3578 19.626ZM98.5527 9.56L98.3287 16.322H96.6767L96.4387 9.56H98.5527ZM97.5447 19.598C97.1901 19.598 96.8961 19.4907 96.6627 19.276C96.4387 19.052 96.3267 18.7767 96.3267 18.45C96.3267 18.1233 96.4387 17.8527 96.6627 17.638C96.8961 17.414 97.1901 17.302 97.5447 17.302C97.8901 17.302 98.1747 17.414 98.3987 17.638C98.6227 17.8527 98.7347 18.1233 98.7347 18.45C98.7347 18.7767 98.6227 19.052 98.3987 19.276C98.1747 19.4907 97.8901 19.598 97.5447 19.598Z" fill="#354563"/>
</g>
<defs>
<filter id="filter0_d_334_267" x="0" y="0" width="150.859" height="36" filterUnits="userSpaceOnUse" color-interpolation-filters="sRGB">
<feFlood flood-opacity="0" result="BackgroundImageFix"/>
<feColorMatrix in="SourceAlpha" type="matrix" values="0 0 0 0 0 0 0 0 0 0 0 0 0 0 0 0 0 0 127 0" result="hardAlpha"/>
<feOffset dy="4"/>
<feGaussianBlur stdDeviation="2"/>
<feComposite in2="hardAlpha" operator="out"/>
<feColorMatrix type="matrix" values="0 0 0 0 0 0 0 0 0 0 0 0 0 0 0 0 0 0 0.25 0"/>
<feBlend mode="normal" in2="BackgroundImageFix" result="effect1_dropShadow_334_267"/>
<feBlend mode="normal" in="SourceGraphic" in2="effect1_dropShadow_334_267" result="shape"/>
</filter>
</defs>
</svg>
